<?xml version="1.0" encoding="UTF-8" standalone="no"?>
<!-- Created with Inkscape (http://www.inkscape.org/) -->

<svg
   width="34.669647mm"
   height="5.1527629mm"
   viewBox="0 0 34.669646 5.152763"
   version="1.1"
   id="svg17126"
   xml:space="preserve"
   sodipodi:docname="analytics.svg"
   inkscape:version="1.2.2 (1:1.2.2+202212051550+b0a8486541)"
   xmlns:inkscape="http://www.inkscape.org/namespaces/inkscape"
   xmlns:sodipodi="http://sodipodi.sourceforge.net/DTD/sodipodi-0.dtd"
   xmlns="http://www.w3.org/2000/svg"
   xmlns:svg="http://www.w3.org/2000/svg"><sodipodi:namedview
     id="namedview17128"
     pagecolor="#ffffff"
     bordercolor="#000000"
     borderopacity="0.25"
     inkscape:showpageshadow="2"
     inkscape:pageopacity="0.0"
     inkscape:pagecheckerboard="0"
     inkscape:deskcolor="#d1d1d1"
     inkscape:document-units="mm"
     showgrid="false"
     inkscape:zoom="5.6568543"
     inkscape:cx="55.507882"
     inkscape:cy="35.266951"
     inkscape:window-width="1920"
     inkscape:window-height="1017"
     inkscape:window-x="0"
     inkscape:window-y="0"
     inkscape:window-maximized="1"
     inkscape:current-layer="layer1"><inkscape:page
       x="0"
       y="0"
       width="34.669647"
       height="5.1527629"
       id="page20287" /><inkscape:page
       x="35.233566"
       y="-0.0035641599"
       width="16.564224"
       height="10.352694"
       id="page20289" /></sodipodi:namedview><defs
     id="defs17123" /><g
     inkscape:label="Layer 1"
     inkscape:groupmode="layer"
     id="layer1"
     transform="translate(-159.3744,-177.6797)"><path
       d="m 163.65984,182.01119 h -2.11487 -3.3e-4 -2.11484 c -0.0306,0 -0.0554,-0.0249 -0.0554,-0.0554 v -4.22069 c 0,-0.0306 0.0249,-0.0554 0.0554,-0.0554 h 2.11484 3.3e-4 2.11484 c 0.0306,0 0.0554,0.0247 0.0554,0.0554 v 4.22069 c 3e-5,0.0306 -0.0249,0.0554 -0.0554,0.0554 z m -2.05947,-0.11086 h 2.00405 v -2.11535 h -0.65694 c -0.0215,0 -0.0409,0.0126 -0.0501,0.0316 -0.008,0.017 -0.006,0.0367 0.003,0.0525 0.003,0.005 0.005,0.01 0.009,0.0147 0.0547,0.0692 0.0839,0.1523 0.0841,0.24019 -7.2e-4,0.21404 -0.1758,0.38847 -0.39021,0.38847 -0.21517,0 -0.39021,-0.17506 -0.39021,-0.39023 9.1e-4,-0.0878 0.03,-0.16991 0.0841,-0.23843 0.004,-0.005 0.006,-0.01 0.009,-0.0146 0.01,-0.0158 0.0113,-0.0355 0.003,-0.0526 -0.009,-0.0193 -0.0286,-0.0316 -0.0501,-0.0316 h -0.65694 v 0.6633 c 0.068,-0.0335 0.14265,-0.051 0.2202,-0.051 l 0.004,3e-5 0.003,-3e-5 c 0.27629,0 0.50102,0.22476 0.50102,0.50102 0,0.27627 -0.22476,0.50103 -0.50102,0.50103 l -0.004,-3e-5 -0.003,3e-5 c -0.0775,0 -0.15216,-0.0175 -0.2202,-0.051 v 0.55201 z m -2.11518,0 h 2.00405 v -0.65251 c 0,-0.003 1.4e-4,-0.004 3.8e-4,-0.006 6.9e-4,-0.0206 0.0128,-0.0392 0.0316,-0.0482 0.0193,-0.009 0.0422,-0.006 0.0588,0.008 0.0697,0.057 0.15404,0.0874 0.24402,0.088 0.2129,-0.001 0.38674,-0.17652 0.38674,-0.39022 0,-0.21371 -0.17384,-0.38877 -0.3875,-0.39023 -0.0891,6.2e-4 -0.17358,0.031 -0.24326,0.088 -0.0166,0.0136 -0.0394,0.0163 -0.0588,0.008 -0.0188,-0.009 -0.0309,-0.0275 -0.0316,-0.0482 -2.2e-4,-0.003 -3.5e-4,-0.004 -3.5e-4,-0.006 v -0.64353 h -0.55044 c 0.0325,0.0672 0.0495,0.14089 0.0495,0.2174 v 0.004 c 0,0.27626 -0.22475,0.501 -0.50102,0.501 -0.27626,0 -0.50099,-0.22476 -0.50099,-0.501 v -0.004 c 0,-0.0765 0.017,-0.15017 0.0495,-0.2174 h -0.55047 z m 0.70433,-2.03074 c -0.003,0.005 -0.005,0.01 -0.009,0.0147 -0.0548,0.0692 -0.0839,0.1523 -0.0841,0.24019 7.3e-4,0.21404 0.17582,0.38847 0.39021,0.38847 0.21444,0 0.38949,-0.17443 0.39023,-0.38885 -3.1e-4,-0.0875 -0.0294,-0.17057 -0.0841,-0.23981 -0.004,-0.005 -0.006,-0.01 -0.009,-0.0147 -0.0101,-0.0157 -0.0113,-0.0355 -0.003,-0.0525 0.009,-0.0193 0.0286,-0.0316 0.0501,-0.0316 h 0.65694 v -0.543 c -0.068,0.0335 -0.14266,0.051 -0.22021,0.051 l -0.005,-3e-5 c -0.27722,0 -0.50197,-0.22476 -0.50197,-0.50099 0,-0.27629 0.22477,-0.50102 0.50102,-0.50102 l 0.004,2e-5 0.003,-2e-5 c 0.0776,0 0.15218,0.0174 0.22021,0.051 v -0.55206 h -2.00404 v 1.99505 h 0.65693 c 0.0213,0 0.0409,0.0126 0.0501,0.0316 0.008,0.0169 0.006,0.0367 -0.003,0.0525 z m 2.86446,0.0353 h 0.55046 v -2.1144 h -2.00404 v 0.65253 c 0,0.003 -1.4e-4,0.004 -3.6e-4,0.006 -7.1e-4,0.0206 -0.0129,0.0392 -0.0316,0.0482 -0.0193,0.009 -0.0422,0.006 -0.0588,-0.008 -0.0697,-0.057 -0.15404,-0.0874 -0.24402,-0.088 -0.2129,0.001 -0.38674,0.17652 -0.38674,0.39021 0,0.21299 0.1732,0.38804 0.3861,0.39021 0.0898,-3e-4 0.17462,-0.0308 0.24466,-0.088 0.0166,-0.0136 0.0394,-0.0163 0.0588,-0.008 0.0188,0.009 0.031,0.0276 0.0316,0.0482 2.2e-4,0.003 3.6e-4,0.004 3.6e-4,0.006 v 0.76428 h 0.55045 c -0.0323,0.0667 -0.0492,0.13978 -0.0495,0.21565 l -3e-5,0.005 c 0,0.27628 0.22476,0.50103 0.50102,0.50103 0.27627,0 0.50102,-0.22476 0.50102,-0.50103 v -0.003 c 0,-0.0765 -0.0169,-0.15019 -0.0495,-0.21742 z"
       id="path6946"
       style="fill:#ff4d01;fill-opacity:1;stroke-width:0.0221593"
       sodipodi:nodetypes="cccssssccssccccccsccccsccccscccccsccccccccsccccscsccsccsssssccccccsccccsccccscccccccscccccccsccccsccccsccccssscc" /><text
       xml:space="preserve"
       style="font-size:4.23333px;font-family:'Roboto Slab';-inkscape-font-specification:'Roboto Slab';text-align:start;text-anchor:start;fill:#ff4d01;stroke:none;stroke-width:1.05833;stroke-linecap:square"
       x="164.88069"
       y="181.96463"
       id="text17687"><tspan
         sodipodi:role="line"
         id="tspan17685"
         style="font-style:normal;font-variant:normal;font-weight:normal;font-stretch:normal;font-family:'Latin Modern Math';-inkscape-font-specification:'Latin Modern Math';text-align:start;text-anchor:start;stroke:none;stroke-width:1.05833"
         x="164.88069"
         y="181.96463">manin-analytics</tspan></text><path
       id="path21622"
       style="fill:#ff4d01;stroke:none;stroke-width:0.0441942;stroke-linecap:square"
       d="M 8.6093751,8.4140626 C 8.5487496,8.4739443 8.4854737,8.5325516 8.4238282,8.591797 V 8.640625 C 8.5024162,8.56554 8.5814135,8.4900575 8.6582032,8.4140625 Z m 0.3730469,0 C 8.7999115,8.6020035 8.6140899,8.7872542 8.4238282,8.9707032 v 0.048828 c 0.208001,-0.1993823 0.411783,-0.4017529 0.609375,-0.6054688 z m 0.3671875,0 c -0.301094,0.3159055 -0.6084137,0.6295157 -0.9257813,0.9375 v 0.050781 C 8.7588005,9.0782639 9.0815247,8.7469028 9.3984376,8.4140626 Z m 0.3613281,0 c -0.079961,0.083654 -0.1599542,0.1656802 -0.2402344,0.25 -0.342483,0.3598545 -0.6870509,0.7213133 -1.046875,1.0742188 v 0.050781 C 8.792759,9.4282724 9.1456483,9.0576325 9.4960939,8.689453 9.5842739,8.596824 9.6719537,8.5058571 9.7597657,8.4140624 c -0.018884,-2.35e-5 -0.028734,1.79e-5 -0.048828,2e-7 z m 4.2050784,0 0.002,0.00195 c 0.0057,-9.257e-4 0.01182,-0.00104 0.01758,-0.00195 z m 1.972656,0 c 0.03137,0.00428 0.06209,0.00899 0.09375,0.013672 v -0.013672 z m -5.814453,0.00195 C 9.8409805,8.6534551 9.6100508,8.8969102 9.3769532,9.1425782 9.0647403,9.4712549 8.7493803,9.801151 8.4238282,10.125 v 0.05078 C 8.7586932,9.8435742 9.0818249,9.5035897 9.4023439,9.1660157 9.6439794,8.9114776 9.8831204,8.6615419 10.125,8.4160157 c -0.01144,-9.1e-5 -0.03833,7.94e-5 -0.05078,0 z m 0.375,0.00586 C 10.053206,8.8035635 9.6695827,9.2088059 9.2812501,9.6210939 9.0337422,9.8839733 8.7840673,10.14922 8.529297,10.410156 8.555229,10.399256 8.58108,10.387396 8.611328,10.376956 8.8465081,10.134819 9.0773771,9.8899507 9.3066407,9.6464845 9.6913534,9.2382187 10.070812,8.8354417 10.462891,8.4570314 c 0.0033,-0.00794 0.0063,-0.015514 0.0098,-0.023437 0.0021,-0.0048 -0.0017,-0.009 -0.02344,-0.011719 z m 4.421875,0.2792969 c -0.291536,-0.00375 -0.568414,0.011699 -0.833984,0.044922 0.0032,0.01218 0.0049,0.024889 0.0078,0.037109 0.581778,-0.07287 1.222457,-0.05962 1.9375,0.056641 V 8.8027345 C 15.591451,8.7394523 15.220287,8.7056578 14.871094,8.701172 Z M 10.316406,9.0156251 C 9.9479457,9.37506 9.5891259,9.7528421 9.2265626,10.136719 c -0.043752,0.04633 -0.088953,0.09228 -0.1328125,0.138672 0.017715,-0.0011 0.033125,-0.0013 0.052734,-0.002 0.035022,-0.03708 0.070514,-0.07429 0.1054687,-0.111328 0.3525079,-0.3732828 0.7008984,-0.7413647 1.0585942,-1.0917974 0.0016,-0.018228 0.0037,-0.036465 0.0059,-0.054687 z m 4.458985,0.074219 c -0.231632,-0.00159 -0.458148,0.011529 -0.679688,0.035156 5.74e-4,0.010468 0.0016,0.020781 0.002,0.03125 0.567826,-0.058768 1.190496,-0.036893 1.884766,0.085937 V 9.2050782 C 15.564654,9.1320368 15.163096,9.0925025 14.775391,9.0898441 Z M 10.304688,9.3144532 C 9.9939701,9.6210051 9.6911933,9.9459395 9.388672,10.275391 c 0.016067,7.74e-4 0.031219,0.0029 0.046875,0.0039 0.2884799,-0.3139711 0.577086,-0.6229704 0.873047,-0.9160156 -10e-4,-0.01635 -0.0033,-0.032447 -0.0039,-0.048828 z m 4.246093,0.15625 c -0.160242,0.00291 -0.317489,0.013789 -0.472656,0.029297 -0.0013,0.00904 -0.0025,0.018319 -0.0039,0.027344 0.572917,-0.055249 1.205284,-0.024358 1.908203,0.109375 V 9.6015626 C 15.483217,9.5082492 15.006564,9.462427 14.550781,9.4707032 Z m -4.205078,0.1757813 c -0.218122,0.2149064 -0.4310506,0.4387075 -0.6425779,0.6679685 0.013697,0.0033 0.027463,0.0062 0.041016,0.0098 0.2012956,-0.217797 0.4040549,-0.4300001 0.6113279,-0.6347658 -0.0034,-0.014277 -0.0067,-0.028635 -0.0098,-0.042969 z M 14.628906,9.841797 C 14.409295,9.840727 14.196269,9.852261 13.986328,9.875 c -0.0049,0.013729 -0.01044,0.027393 -0.01563,0.041016 0.601863,-0.068549 1.267679,-0.041126 2.011719,0.107422 v -0.03711 C 15.511861,9.8926757 15.060081,9.843891 14.628906,9.841797 Z m -4.195312,0.09375 c -0.154581,0.15104 -0.306996,0.305066 -0.4570314,0.464844 0.012534,0.005 0.024724,0.01042 0.037109,0.01563 0.142907,-0.151859 0.288515,-0.299457 0.435547,-0.4433596 -0.0052,-0.012363 -0.01071,-0.024656 -0.01563,-0.037109 z m 0.123047,0.251953 c -0.112508,0.108107 -0.224516,0.218499 -0.333985,0.332031 0.01119,0.0064 0.02216,0.01287 0.0332,0.01953 0.105261,-0.108976 0.212233,-0.216376 0.320312,-0.320313 -0.0063,-0.01044 -0.0134,-0.0207 -0.01953,-0.03125 z m 3.996094,0.01758 c -0.260896,-6.45e-4 -0.510886,0.01631 -0.75,0.04883 -0.0093,0.01472 -0.01959,0.02848 -0.0293,0.04297 0.651315,-0.09362 1.382266,-0.06764 2.208984,0.107422 v -0.03711 c -0.51182,-0.107993 -0.987669,-0.161016 -1.429687,-0.16211 z m -3.84375,0.207032 c -0.08889,0.08319 -0.177043,0.168797 -0.263672,0.255859 0.0094,0.0074 0.01805,0.01582 0.02734,0.02344 0.0853,-0.08564 0.172267,-0.168129 0.259766,-0.25 -0.0079,-0.0097 -0.01574,-0.01948 -0.02344,-0.0293 z m 3.705078,0.15625 c -0.336646,0.0051 -0.660311,0.04068 -0.972657,0.105468 -0.0204,0.01772 -0.04151,0.03405 -0.0625,0.05078 0.787313,-0.175693 1.652897,-0.157423 2.603516,0.05273 v -0.03711 c -0.55053,-0.121329 -1.073429,-0.179318 -1.568359,-0.171875 z m -3.521485,0.04687 c -0.08495,0.07602 -0.167574,0.154559 -0.25,0.234375 0.0084,0.0088 0.01539,0.01677 0.02344,0.02539 0.08282,-0.08059 0.166741,-0.159713 0.251953,-0.236328 -0.0085,-0.0078 -0.01704,-0.01543 -0.02539,-0.02344 z m 0.21875,0.179687 c -0.09965,0.08432 -0.196934,0.169684 -0.292968,0.259766 0.006,0.0082 0.01177,0.01712 0.01758,0.02539 0.09815,-0.09262 0.198848,-0.181125 0.300781,-0.267578 -0.0086,-0.0058 -0.01691,-0.01166 -0.02539,-0.01758 z m 3.353516,0.123047 c -1.107665,-8.69e-4 -2.077182,0.32602 -2.927734,0.982422 -0.125515,0.09692 -0.245569,0.200787 -0.363282,0.308594 -4.25e-4,0.01777 -10e-4,0.03507 -0.002,0.05273 0.125456,-0.116282 0.254303,-0.228314 0.388672,-0.332031 1.211536,-0.934762 2.666273,-1.194862 4.421875,-0.78711 v -0.03906 c -0.532524,-0.123136 -1.03829,-0.185171 -1.517578,-0.185547 z m -3.091797,0.0293 c -0.140278,0.108898 -0.277561,0.222807 -0.410156,0.34375 0.0041,0.008 0.0076,0.01521 0.01172,0.02344 0.0026,0.0053 0.0052,0.01035 0.0078,0.01563 0.139831,-0.127157 0.282814,-0.249173 0.431641,-0.363281 -0.01375,-0.0063 -0.02736,-0.01293 -0.04102,-0.01953 z m 0.326172,0.123047 c -0.217728,0.148394 -0.42496,0.311049 -0.623047,0.488281 0.0044,0.01315 0.0095,0.02584 0.01367,0.03906 0.208702,-0.187378 0.427521,-0.360599 0.658203,-0.515625 -0.01629,-0.004 -0.03261,-0.0073 -0.04883,-0.01172 z m 0.466797,0.06641 c -0.200663,0.108365 -0.396442,0.23374 -0.585938,0.373047 -0.148473,0.109215 -0.291179,0.225853 -0.429687,0.349609 0.0024,0.01497 0.0038,0.02988 0.0059,0.04492 0.143662,-0.129462 0.292862,-0.251603 0.447266,-0.365234 0.207598,-0.152522 0.421397,-0.285248 0.642578,-0.400391 -0.02665,6.43e-4 -0.0534,-0.0015 -0.08008,-0.002 z m 2.341797,0.128906 c -1.445486,-0.02259 -2.527351,0.524108 -3.392578,1.369141 -0.0064,0.02489 -0.0122,0.04972 -0.01953,0.07422 1.13704,-1.132974 2.651548,-1.743309 4.886719,-1.205079 v -0.03906 C 15.45245,11.337573 14.961733,11.27272 14.507813,11.265625 Z m 0.134765,0.298828 c -0.418594,0.0077 -0.815608,0.06372 -1.195312,0.169922 -1.949262,0.544692 -3.094986,2.355206 -4.0234378,4.214844 h 0.041016 c 0.9241728,-1.847254 2.0625128,-3.640328 3.9921868,-4.179688 0.761211,-0.212228 1.596899,-0.224131 2.525391,-0.03711 v -0.03906 c -0.469175,-0.09408 -0.915454,-0.13669 -1.339844,-0.128907 z m 0.308594,0.296875 c -0.410213,0.0074 -0.800667,0.06341 -1.173828,0.166016 -1.856614,0.511448 -2.976772,2.175495 -3.8808595,3.921875 h 0.041016 C 10.836593,14.215572 11.950761,12.567844 13.78711,12.0625 c 0.670776,-0.184408 1.397438,-0.213681 2.195312,-0.08789 V 11.9375 c -0.357374,-0.05602 -0.700671,-0.08217 -1.03125,-0.07617 z m 0.308594,0.298828 c -0.402007,0.0074 -0.785341,0.06115 -1.152344,0.160157 -1.761609,0.477538 -2.85585,1.99774 -3.734375,3.628906 h 0.04102 c 0.873679,-1.61761 1.959718,-3.12143 3.701172,-3.59375 0.577851,-0.15636 1.198079,-0.198334 1.867187,-0.125 v -0.03711 c -0.247572,-0.02696 -0.488259,-0.03754 -0.722656,-0.0332 z m 0.30664,0.296875 c -0.393881,0.0073 -0.770143,0.05888 -1.130859,0.154297 -1.66424,0.444575 -2.726505,1.825197 -3.578125,3.337891 h 0.04492 c 0.846461,-1.498623 1.899215,-2.864218 3.542969,-3.302734 0.482094,-0.128021 0.993098,-0.176075 1.537109,-0.144532 v -0.03516 c -0.140465,-0.0081 -0.279881,-0.01228 -0.416016,-0.0098 z M 15.875,12.753906 c -0.38551,0.0073 -0.755459,0.05825 -1.109375,0.150391 -1.564091,0.410707 -2.589636,1.653995 -3.414062,3.044922 h 0.04297 c 0.818412,-1.376986 1.83708,-2.605005 3.38086,-3.009766 0.383864,-0.09979 0.785506,-0.149077 1.207031,-0.148437 v -0.03711 c -0.03592,-5.2e-5 -0.07179,-6.75e-4 -0.107422,0 z m 0.107422,0.306641 c -0.305243,0.01793 -0.601231,0.06374 -0.886719,0.136719 -1.462218,0.376275 -2.451177,1.484308 -3.246093,2.751953 h 0.04297 c 0.788903,-1.253249 1.769518,-2.345614 3.212891,-2.716797 0.282701,-0.07228 0.574431,-0.116908 0.876953,-0.134766 z m 0,0.326172 c -0.189142,0.02326 -0.375165,0.05619 -0.556641,0.101562 -1.357593,0.343205 -2.303087,1.319157 -3.066406,2.460938 h 0.04297 c 0.757135,-1.126893 1.695284,-2.087672 3.033203,-2.425781 0.178871,-0.04467 0.360525,-0.07654 0.546875,-0.09961 z m 0,0.345703 c -0.07634,0.01464 -0.151455,0.03042 -0.226562,0.04883 -1.247932,0.309035 -2.144176,1.156038 -2.873047,2.167969 h 0.04492 c 0.721971,-0.996818 1.607706,-1.828847 2.835937,-2.132813 0.07225,-0.01769 0.145328,-0.03269 0.21875,-0.04687 z m -5.804687,0.101563 c -0.02185,0.01181 -0.04403,0.02222 -0.06641,0.0332 -0.4319732,0.645137 -0.8053007,1.359019 -1.1542966,2.082031 h 0.041016 c 0.3558331,-0.735809 0.7362398,-1.463088 1.1796876,-2.115234 z m -1.6777349,0.07226 c -0.025402,0.03526 -0.050697,0.07019 -0.076172,0.105469 v 0.06445 c 0.037215,-0.05148 0.074272,-0.102848 0.1113282,-0.154297 -0.00313,-0.0013 -0.00668,-0.0026 -0.00977,-0.0039 z m 1.2753906,0.08789 c -0.017651,0.0048 -0.034866,0.0113 -0.052734,0.01563 -0.3914768,0.618165 -0.7466094,1.27958 -1.0917969,1.939453 h 0.042969 c 0.3484859,-0.666221 0.7052108,-1.33332 1.1015625,-1.955078 z m -0.9941406,0.0078 c -0.069289,0.102352 -0.1382397,0.204573 -0.2070312,0.306641 -0.049865,0.07398 -0.1002669,0.148462 -0.1503907,0.222656 v 0.06641 c 0.060374,-0.08937 0.1216656,-0.178478 0.1816407,-0.267578 0.071457,-0.106021 0.1430291,-0.212314 0.2148437,-0.318359 -0.012969,-0.003 -0.026112,-0.0064 -0.039063,-0.0098 z m 0.2988281,0.04883 c -0.1849605,0.286134 -0.3680502,0.574396 -0.5488281,0.863282 -0.036082,0.05762 -0.071515,0.112647 -0.1074219,0.169922 v 0.06836 c 0.045853,-0.07309 0.093055,-0.145886 0.1386719,-0.21875 0.1840681,-0.294065 0.3701224,-0.587787 0.5585938,-0.878906 -0.015031,-7.64e-4 -0.026713,-0.0029 -0.041016,-0.0039 z m 0.3105469,0.0039 c -0.308715,0.489194 -0.6003899,0.994376 -0.8886719,1.496093 -0.026249,0.04568 -0.051986,0.08932 -0.078125,0.134766 v 0.07227 c 0.036396,-0.06325 0.072774,-0.123791 0.109375,-0.1875 0.2922199,-0.508135 0.58922,-1.020957 0.9023438,-1.515625 -0.014367,8.47e-4 -0.029824,-6.09e-4 -0.044922,0 z m 6.5917969,0.04687 c -1.082042,0.292512 -1.893464,0.994448 -2.5625,1.847656 h 0.04687 c 0.659766,-0.835279 1.457644,-1.522007 2.515625,-1.810547 z m 0,0.394531 c -0.808305,0.290562 -1.458465,0.816125 -2.009766,1.453125 h 0.05274 c 0.540161,-0.617828 1.172848,-1.128858 1.957031,-1.414063 z m 0,0.421875 c -0.543342,0.248457 -1.009045,0.608324 -1.421875,1.03125 h 0.04883 c 0.399931,-0.405165 0.851636,-0.746969 1.373047,-0.988281 z m 0,0.455078 c -0.288475,0.162837 -0.553992,0.358062 -0.800781,0.576172 h 0.05469 c 0.231287,-0.201243 0.478571,-0.380507 0.746094,-0.533203 z m 0,0.486328 c -0.04303,0.0292 -0.08499,0.05924 -0.126953,0.08984 h 0.0625 c 0.02156,-0.01536 0.04261,-0.03188 0.06445,-0.04687 z"
       transform="matrix(0.26458333,0,0,0.26458333,159.37443,177.67976)" /><text
       xml:space="preserve"
       style="font-style:normal;font-variant:normal;font-weight:normal;font-stretch:normal;font-size:4.23333px;font-family:'Latin Modern Math';-inkscape-font-specification:'Latin Modern Math';text-align:start;text-anchor:start;fill:#ff4d01;stroke:none;stroke-width:1.05833;stroke-linecap:square"
       x="165.01616"
       y="180.90282"
       id="text21627"><tspan
         sodipodi:role="line"
         id="tspan21625"
         style="stroke-width:1.05833"
         x="165.01616"
         y="180.90282"></tspan></text></g><g
     id="g19933"
     transform="matrix(6.3512961e-4,0,0,-6.3512961e-4,35.233568,10.349128)"><path
       d="M 601.47,16300 C 396.905,16205.5 196.412,16111.7 0,16018 v 31.8 c 174.41,83.1 352.08,166.3 533.01,250.2 h 68.46"
       style="fill:#94806d;fill-opacity:1;fill-rule:nonzero;stroke:none"
       id="path19935" /></g><g
     id="g19937"
     transform="matrix(6.3512961e-4,0,0,-6.3512961e-4,35.233568,10.349128)"><path
       d="M 1427.88,16300 C 971.48,16088.1 496.338,15873.8 0,15658.6 v 31 c 471.882,204.5 924.21,409.1 1359.42,610.4 h 68.46"
       style="fill:#94806d;fill-opacity:1;fill-rule:nonzero;stroke:none"
       id="path19939" /></g><g
     id="g19941"
     transform="matrix(6.3512961e-4,0,0,-6.3512961e-4,35.233568,10.349128)"><path
       d="M 2237.99,16300 C 1573.76,15976.4 831.3,15642.3 0,15328.5 v 30.2 c 804.405,304 1524.86,627.5 2171.97,941.3 h 66.02"
       style="fill:#94806d;fill-opacity:1;fill-rule:nonzero;stroke:none"
       id="path19943" /></g><g
     id="g19945"
     transform="matrix(6.3512961e-4,0,0,-6.3512961e-4,35.233568,10.349128)"><path
       d="M 3011.42,16300 C 2177.68,15861.5 1195.6,15405.1 0,15033.5 v 29.3 c 1166.26,364.3 2129.59,807.7 2948.67,1237.2 h 62.75"
       style="fill:#94806d;fill-opacity:1;fill-rule:nonzero;stroke:none"
       id="path19947" /></g><g
     id="g19949"
     transform="matrix(6.3512961e-4,0,0,-6.3512961e-4,35.233568,10.349128)"><path
       d="M 3741.66,16300 C 2777.52,15747.4 1591.69,15160.6 0,14770.2 v 30.2 c 1560.72,383 2731.06,955.2 3683.8,1499.6 h 57.86"
       style="fill:#94806d;fill-opacity:1;fill-rule:nonzero;stroke:none"
       id="path19951" /></g><g
     id="g19953"
     transform="matrix(6.3512961e-4,0,0,-6.3512961e-4,35.233568,10.349128)"><path
       d="m 4429.52,16300 c -20.37,-13 -40.75,-26.1 -61.12,-39.1 C 3316.23,15607.2 1978.82,14898.2 0,14538 v 28.5 c 1971.48,360.2 3304.01,1066.8 4352.91,1718.8 7.34,4.9 15.49,9.8 22.82,14.7 h 53.79"
       style="fill:#94806d;fill-opacity:1;fill-rule:nonzero;stroke:none"
       id="path19955" /></g><g
     id="g19957"
     transform="matrix(6.3512961e-4,0,0,-6.3512961e-4,35.233568,10.349128)"><path
       d="M 5070.93,16300 C 4982.09,16233.2 4890,16168 4794.64,16105.2 3694.39,15384.8 2266.51,14612.9 0,14329.3 v 29.4 c 2259.18,282.8 3682.98,1052.9 4779.16,1770.2 83.94,55.4 164.63,112.4 243.68,171.1 h 48.09"
       style="fill:#94806d;fill-opacity:1;fill-rule:nonzero;stroke:none"
       id="path19959" /></g><g
     id="g19961"
     transform="matrix(6.3512961e-4,0,0,-6.3512961e-4,35.233568,10.349128)"><path
       d="m 5673.21,16300 c -142.62,-123.1 -292.58,-240.4 -452.32,-350.5 C 4101.08,15179.4 2621.85,14362.7 140.992,14154.1 93.7282,14150 46.455,14145.1 0,14140.2 v 29.4 c 45.64,4.9 92.095,9 138.55,13 2474.34,208.7 3949.49,1022 5066.04,1790.6 149.14,102.7 290.14,212.7 424.61,326.8 h 44.01"
       style="fill:#94806d;fill-opacity:1;fill-rule:nonzero;stroke:none"
       id="path19963" /></g><g
     id="g19965"
     transform="matrix(6.3512961e-4,0,0,-6.3512961e-4,35.233568,10.349128)"><path
       d="m 6251.05,16300 c -187.45,-178.5 -386.31,-349.6 -603.92,-506.1 -1130.4,-815 -2641.41,-1666.7 -5277.123,-1804.4 -126.322,-7.4 -249.39,-17.1 -370.007,-31 v 27.7 c 119.802,13.9 242.867,24.5 368.383,31.8 2628.367,137.7 4134.487,987 5261.637,1799.5 207.01,150 398.53,313 579.46,482.5 h 41.57"
       style="fill:#94806d;fill-opacity:1;fill-rule:nonzero;stroke:none"
       id="path19967" /></g><g
     id="g19969"
     transform="matrix(6.3512961e-4,0,0,-6.3512961e-4,35.233568,10.349128)"><path
       d="m 6809.32,16300 c -225.75,-233.9 -466.99,-458.8 -735.94,-661.8 C 4936.45,14782.5 3397.73,13898.2 599.025,13825.7 392.015,13819.1 192.34,13804.5 0,13780 v 28.5 c 192.34,24.5 392.015,39.2 598.213,45.7 2790.557,71.7 4325.197,954.3 5458.047,1806.8 259.99,195.6 493.89,413.2 713.13,639 h 39.93"
       style="fill:#94806d;fill-opacity:1;fill-rule:nonzero;stroke:none"
       id="path19971" /></g><g
     id="g19973"
     transform="matrix(6.3512961e-4,0,0,-6.3512961e-4,35.233568,10.349128)"><path
       d="m 7353.74,16300 c -259.98,-289.3 -538.71,-569.7 -854.12,-817.4 C 5356.18,14586.1 3788.93,13668.4 828.04,13661 538.715,13659.4 262.427,13640.7 0,13604.8 v 29.3 c 262.427,35.9 538.715,53.8 828.04,55.5 2951.93,7.3 4514.28,921.7 5653.65,1815.8 307.26,241.2 579.47,513.4 832.93,794.6 h 39.12"
       style="fill:#94806d;fill-opacity:1;fill-rule:nonzero;stroke:none"
       id="path19975" /></g><g
     id="g19977"
     transform="matrix(6.3512961e-4,0,0,-6.3512961e-4,35.233568,10.349128)"><path
       d="m 7886.75,16300 c -290.95,-343.1 -601.47,-678.9 -961.7,-973.1 C 6157.32,14701 5414.04,14273.9 4584.37,13983 3579.48,13630.1 2426.25,13471.9 1057.05,13496.4 683.785,13502.1 330.89,13480.9 0,13433.6 v 28.6 c 295.845,42.3 608.802,63.5 938.065,63.5 39.935,0 79.865,0 119.805,-0.8 3113.3,-57 4704.18,890 5849.25,1824.8 351.27,286.9 656.89,614.5 942.14,950.3 h 37.49"
       style="fill:#94806d;fill-opacity:1;fill-rule:nonzero;stroke:none"
       id="path19979" /></g><g
     id="g19981"
     transform="matrix(6.3512961e-4,0,0,-6.3512961e-4,35.233568,10.349128)"><path
       d="m 8413.24,16300 c -320.29,-396.9 -660.96,-788.9 -1061.94,-1128 -771.81,-653.6 -1528.94,-1094.5 -2383.88,-1388.7 -1035.86,-357 -2240.43,-504.5 -3681.35,-450.7 -459.66,15.5 -888.35,-7.4 -1286.07,-69.3 v 29.3 c 397.72,61.2 827.225,84 1287.7,68.5 3274.67,-122.2 4894.07,857.4 6045.67,1832.1 392.83,332.5 726.98,717.2 1043.2,1106.8 h 36.67"
       style="fill:#94806d;fill-opacity:1;fill-rule:nonzero;stroke:none"
       id="path19983" /></g><g
     id="g19985"
     transform="matrix(6.3512961e-4,0,0,-6.3512961e-4,35.233568,10.349128)"><path
       d="M 8933.21,16300 C 8584.39,15851.7 8217.64,15401.9 7777.54,15016.4 7001.66,14335.8 6230.67,13881.1 5350.47,13582.8 4282.82,13221.7 3027.72,13085.6 1515.9,13168 968.22,13196.5 462.102,13171.2 0,13094.6 v 28.5 c 462.92,77.5 969.035,101.9 1516.71,73.4 3436.86,-185.8 5083.97,826.4 6242.09,1841.1 432.76,378.9 794.62,821.5 1138.55,1262.4 h 35.86"
       style="fill:#94806d;fill-opacity:1;fill-rule:nonzero;stroke:none"
       id="path19987" /></g><g
     id="g19989"
     transform="matrix(6.3512961e-4,0,0,-6.3512961e-4,35.233568,10.349128)"><path
       d="m 9447.48,16300 c -375.72,-498 -767.73,-1008.2 -1243.69,-1439.3 -779.96,-706.6 -1564.8,-1176 -2470.27,-1477.6 -1099.43,-365.9 -2405.06,-489.8 -3988.61,-379.8 -637.33,43.2 -1219.235,17.1 -1744.91,-76.6 v 28.5 c 526.493,93.8 1109.21,119.8 1746.54,76.6 3597.41,-251 5273.05,794.7 6438.5,1850.1 468.63,424.6 855.75,925.8 1226.58,1418.1 h 35.86"
       style="fill:#94806d;fill-opacity:1;fill-rule:nonzero;stroke:none"
       id="path19991" /></g><g
     id="g19993"
     transform="matrix(6.3512961e-4,0,0,-6.3512961e-4,35.233568,10.349128)"><path
       d="m 9957.67,16300 c -10.6,-14.7 -20.38,-28.5 -30.97,-42.4 C 9533.87,15723 9128,15170.4 8630.03,14705 7845.19,13971.5 7046.49,13488.2 6117.39,13183.4 4985.35,12813.4 3630.01,12700.1 1973.93,12838.7 1246.13,12898.2 586.8,12871.3 0,12758.8 v 29.4 c 588.427,112.4 1247.76,138.5 1976.37,79 3757.97,-314.6 5462.13,762.9 6634.1,1858.2 496.34,464.6 901.39,1015.5 1293.41,1548.5 6.52,9 13.04,17.1 18.74,26.1 h 35.05"
       style="fill:#94806d;fill-opacity:1;fill-rule:nonzero;stroke:none"
       id="path19995" /></g><g
     id="g19997"
     transform="matrix(6.3512961e-4,0,0,-6.3512961e-4,35.233568,10.349128)"><path
       d="m 10465.4,16300 c -39.9,-55.4 -79,-110.8 -119,-166.3 -391.18,-545.2 -795.42,-1108.4 -1290.12,-1584.3 -788.92,-760.4 -1601.48,-1257.6 -2555.84,-1565.6 -1163.82,-374.9 -2569.7,-476 -4297.5,-308.9 -820.7,77.4 -1555.83,49.7 -2202.94,-82.3 v 29.3 c 648.743,132 1384.68,158.9 2205.39,81.5 3919.33,-379 5652.02,731.1 6830.51,1866.4 493.08,474.3 896.5,1036.6 1286.9,1580.2 35.8,49.8 71.7,100.3 108.4,150 h 34.2"
       style="fill:#94806d;fill-opacity:1;fill-rule:nonzero;stroke:none"
       id="path19999" /></g><g
     id="g20001"
     transform="matrix(6.3512961e-4,0,0,-6.3512961e-4,35.233568,10.349128)"><path
       d="m 10970.7,16300 c -68.4,-97 -136.9,-194 -204.6,-290.1 -389.5,-555.1 -792.13,-1128.8 -1283.58,-1616.2 -793.81,-786.5 -1619.4,-1298.3 -2599.85,-1609.6 -1195.6,-379.8 -2651.19,-469.5 -4450.71,-273.9 C 1517.53,12608 705.787,12579.5 0,12425.5 v 29.3 c 707.42,153.2 1520.79,181.8 2435.22,84 4079.07,-442.6 5841.1,699.2 7026.93,1875.3 489.81,484.9 891.65,1057.9 1281.15,1612.1 63.6,90.4 128,182.5 193.2,273.8 h 34.2"
       style="fill:#94806d;fill-opacity:1;fill-rule:nonzero;stroke:none"
       id="path20003" /></g><g
     id="g20005"
     transform="matrix(6.3512961e-4,0,0,-6.3512961e-4,35.233568,10.349128)"><path
       d="m 11475.2,16300 c -97.8,-138.6 -193.2,-277.1 -287.7,-414.8 C 10798.7,15320.4 10397,14736 9907.95,14238 9110.07,13424.7 8270.62,12899 7265.72,12584.4 6038.33,12200.5 4532.21,12122.3 2661.79,12345.6 1652,12464.6 763.655,12435.3 0,12257.6 v 30.2 c 765.285,176 1655.26,205.3 2665.05,86.3 4238.81,-506.1 6030.18,668.3 7222.53,1883.5 487.32,496.3 888.32,1079.9 1276.32,1643.9 90.4,132 182.5,264.8 276.3,398.5 h 35"
       style="fill:#94806d;fill-opacity:1;fill-rule:nonzero;stroke:none"
       id="path20007" /></g><g
     id="g20009"
     transform="matrix(6.3512961e-4,0,0,-6.3512961e-4,35.233568,10.349128)"><path
       d="m 11976.4,16300 c -125.5,-180.1 -247.7,-360.2 -367.5,-538.7 -388,-575.4 -788.1,-1170.4 -1274.7,-1678.9 -801.96,-840.3 -1655.27,-1379 -2685.43,-1697.7 C 6389.6,11996 4832.95,11930 2890.8,12181.8 1784.85,12323.6 819.075,12292.6 0,12090.5 v 29.4 c 821.52,201.3 1787.29,231.4 2894.06,89.6 4400.19,-570.5 6220.08,636.5 7419.74,1892.4 484.1,507 866.4,1074.2 1271.4,1674.9 116.6,173.6 234.7,348.8 356.2,523.2 h 35"
       style="fill:#94806d;fill-opacity:1;fill-rule:nonzero;stroke:none"
       id="path20011" /></g><g
     id="g20013"
     transform="matrix(6.3512961e-4,0,0,-6.3512961e-4,35.233568,10.349128)"><path
       d="m 12476.8,16300 c -154,-220.9 -300.7,-444.2 -445.8,-663.4 -404.2,-612.1 -786.4,-1190.7 -1270.6,-1709.9 C 9953.59,13060.4 9086.43,12507 8031.82,12185.9 6740.86,11792.2 5134.5,11736.8 3119.82,12017.2 1916.06,12183.4 874.495,12151.6 0,11924.3 v 29.3 c 876.125,226.6 1919.32,258.4 3123.89,92.1 4547.7,-632.4 6348.04,539.5 7615.41,1900.6 482.4,517.5 863.9,1094.5 1268.1,1706.6 141.8,213.5 285.2,431.1 435.2,647.1 h 34.2"
       style="fill:#94806d;fill-opacity:1;fill-rule:nonzero;stroke:none"
       id="path20015" /></g><g
     id="g20017"
     transform="matrix(6.3512961e-4,0,0,-6.3512961e-4,35.233568,10.349128)"><path
       d="m 12976.4,16300 c -180.9,-262.4 -352.9,-527.3 -522.4,-788.1 -404.2,-622.7 -785.6,-1211.1 -1267.3,-1740.8 C 10374.9,12877.8 9493.93,12310.6 8414.87,11986.2 7092.13,11587.7 5435.23,11544.5 3349.65,11852.5 2046.46,12044.1 927.47,12010.7 0,11754.7 v 30.2 c 929.915,255.1 2050.54,287.7 3353.72,96.2 4707.44,-696 6536.3,506.1 7811.78,1908.7 480,528.1 861.5,1115.7 1264.9,1738.4 165.4,255.1 334.1,514.3 511,771.8 h 35"
       style="fill:#94806d;fill-opacity:1;fill-rule:nonzero;stroke:none"
       id="path20019" /></g><g
     id="g20021"
     transform="matrix(6.3512961e-4,0,0,-6.3512961e-4,35.233568,10.349128)"><path
       d="m 13475.2,16300 c -209.4,-303.2 -405.9,-610.4 -598.2,-912.8 -403.4,-633.3 -784.8,-1231.5 -1264.1,-1771.8 C 10796.3,12696.1 9901.43,12115 8797.11,11786.5 7442.58,11383.9 5735.97,11351.3 3578.66,11688.7 2175.23,11906.3 979.63,11871.3 0,11586.9 v 29.3 c 982.075,284.4 2179.31,318.7 3582.74,100.2 4867.18,-759.5 6725.36,472.7 8008.16,1917.7 478.4,538.7 859,1136.1 1262.5,1768.6 189,296.6 381.4,599 587.6,897.3 h 34.2"
       style="fill:#94806d;fill-opacity:1;fill-rule:nonzero;stroke:none"
       id="path20023" /></g><g
     id="g20025"
     transform="matrix(6.3512961e-4,0,0,-6.3512961e-4,35.233568,10.349128)"><path
       d="m 13973.2,16300 c -238,-343.9 -457.2,-694.4 -672.4,-1038.3 -403.4,-643.9 -784,-1251.9 -1262.4,-1802 -820.7,-946.2 -1729.5,-1541.1 -2858.24,-1872.8 C 7793.84,11179.4 6036.7,11159 3807.68,11524.1 2303.19,11769.4 1030.97,11733.6 0,11417.3 v 29.4 c 1033.42,314.6 2308.08,350.4 3812.57,105.1 5026.1,-822.3 6913.63,440.1 8204.63,1926.7 476.7,548.5 856.5,1155.6 1259.1,1798.7 211.9,339 428.7,684.6 661.8,1022.8 h 35.1"
       style="fill:#94806d;fill-opacity:1;fill-rule:nonzero;stroke:none"
       id="path20027" /></g><g
     id="g20029"
     transform="matrix(6.3512961e-4,0,0,-6.3512961e-4,35.233568,10.349128)"><path
       d="m 14471.1,16300 c -266.5,-383.9 -509.3,-778.3 -746.5,-1163.8 -402.6,-653.7 -783.2,-1271.4 -1260,-1832.1 C 11639,12331.8 10716.4,11723 9562.39,11387.2 8145.11,10975.6 6337.44,10966.6 4037.51,11359.5 2429.51,11633.3 1079.87,11595 0,11247.8 v 29.4 c 1083.13,346.3 2434.4,383.8 4041.58,110.8 5186.66,-886.7 7102.72,405.9 8401.82,1934.8 474.3,558.3 854.1,1175.2 1256.7,1828 234.8,380.7 473.6,770.2 736.8,1149.2 h 34.2"
       style="fill:#94806d;fill-opacity:1;fill-rule:nonzero;stroke:none"
       id="path20031" /></g><g
     id="g20033"
     transform="matrix(6.3512961e-4,0,0,-6.3512961e-4,35.233568,10.349128)"><path
       d="m 14968.3,16300 c -295,-424.6 -560.7,-862.3 -819.9,-1289.3 -402.6,-664.3 -782.4,-1291.8 -1257.5,-1862.3 -830.5,-999.2 -1767,-1621.9 -2945.46,-1960.1 -1449.07,-416.4 -3306.45,-414 -5678.92,6.5 C 2555.84,11498 1128.77,11458.1 0,11076.7 v 29.3 c 1132.03,380.6 2560.73,420.5 4271.41,117.4 5345.59,-949.5 7290.99,372.4 8597.39,1942.9 473.6,569.7 853.4,1195.6 1255.1,1859 256,422.2 518.4,855 809.3,1274.7 h 35.1"
       style="fill:#94806d;fill-opacity:1;fill-rule:nonzero;stroke:none"
       id="path20035" /></g><g
     id="g20037"
     transform="matrix(6.3512961e-4,0,0,-6.3512961e-4,35.233568,10.349128)"><path
       d="m 15466.3,16300 c -322,-462.1 -608.9,-942.1 -888.4,-1410 -404.2,-675.6 -785.7,-1314.5 -1260.8,-1897.3 -836.2,-1025.2 -1785.7,-1661.8 -2989.4,-2004.1 C 8846.82,10567.3 6939.72,10581.1 4495.54,11031 2680.53,11364.4 1176.86,11321.2 0,10904.7 v 30.2 c 1180.12,415.6 2685.42,457.2 4501.24,123.8 5504.56,-1012.2 7479.26,339.9 8793.86,1952 473.5,581.1 854.9,1219.2 1258.4,1894 276.2,462.9 559.9,937.3 878.5,1395.3 h 34.3"
       style="fill:#94806d;fill-opacity:1;fill-rule:nonzero;stroke:none"
       id="path20039" /></g><g
     id="g20041"
     transform="matrix(6.3512961e-4,0,0,-6.3512961e-4,35.233568,10.349128)"><path
       d="m 15962.6,16300 c -352.1,-502.9 -661,-1026.9 -961.7,-1537.9 -403.4,-685.4 -784.9,-1333.3 -1257.6,-1925 -841,-1051.4 -1804.4,-1702.6 -3032.6,-2048.1 -1512.61,-425.5 -3470.24,-400.2 -5985.33,77.4 C 2803.6,11230.7 1223.31,11185.1 0,10731.9 v 31 c 1227.39,450.7 2809.3,495.5 4730.26,131.2 5664.24,-1075.8 7668.34,306.4 8990.24,1960.9 471.9,590.1 852.5,1236.3 1255.9,1920.9 297.5,506.2 602.3,1025.3 951.1,1524.1 h 35.1"
       style="fill:#94806d;fill-opacity:1;fill-rule:nonzero;stroke:none"
       id="path20043" /></g><g
     id="g20045"
     transform="matrix(6.4132537e-4,0,0,-6.4132537e-4,35.233568,10.349128)"><path
       d="m 16300,16142.6 c -380.2,-539.2 -708.7,-1105 -1027.5,-1654.6 -398.7,-686.1 -774.8,-1335 -1240.5,-1929 -838.6,-1067.1 -1807.2,-1725.7 -3047,-2071.1 C 9456.34,10061.7 7467.57,10098 4906.55,10598.4 2897.6,10991.5 1256.7,10943.1 0,10457.2 v 29.8 c 1259.93,484.3 2903.25,531.9 4912.2,139.7 5762.1,-1126.77 7777.5,271.2 9098,1949.2 464.1,593.2 839.4,1240.6 1237.3,1925.8 316.4,545.6 641.7,1105.8 1018.6,1640.9 h 33.9"
       style="fill:#94806d;fill-opacity:1;fill-rule:nonzero;stroke:none"
       id="path20047" /></g><g
     id="g20049"
     transform="matrix(6.6066451e-4,0,0,-6.6066451e-4,35.233568,10.349128)"><path
       d="m 16300,15670.1 c -398,-561 -735.7,-1151.8 -1064.8,-1726.9 -789,-1378.2 -1533.3,-2680.3 -2997.7,-3474.8 C 10589.8,9574.41 8284.76,9467.07 4983.08,10130.7 2929.52,10542.8 1263.01,10492.7 0,9983.4 v 29.8 c 1266.14,507.7 2935,557 4988.56,144.1 3294.64,-662.03 5594.24,-555.47 7235.64,335.4 1458.1,790.5 2200.9,2089.6 2986.7,3463.8 326.8,570.4 662.1,1156.5 1056.2,1713.6 h 32.9"
       style="fill:#94806d;fill-opacity:1;fill-rule:nonzero;stroke:none"
       id="path20051" /></g><g
     id="g20053"
     transform="matrix(6.7619337e-4,0,0,-6.7619337e-4,35.233568,10.349128)"><path
       d="m 16300,15310.2 c -543.5,-643.8 -974.5,-1357.3 -1391.7,-2047.7 C 13366.6,10707.2 11909.8,8293.53 5125.85,9584.18 2965.58,9994.5 1249.31,9875.84 0,9232.81 v 29.86 c 1253.14,640.73 2970.94,757.83 5130.45,348.31 6765.55,-1287.59 8217.75,1118.42 9755.65,3665.22 413.4,685.2 841.3,1393.3 1378.7,2034 h 35.2"
       style="fill:#94806d;fill-opacity:1;fill-rule:nonzero;stroke:none"
       id="path20055" /></g><g
     id="g20057"
     transform="matrix(6.948642e-4,0,0,-6.948642e-4,35.233568,10.349128)"><path
       d="m 16300,14898.8 c -104.3,-100.6 -206.3,-205.6 -306.2,-313.6 -578,-626.5 -1031.7,-1340.2 -1469.7,-2030 C 13755.3,11345.4 13029,10203.4 11685.1,9474.87 10963.3,9083.04 10131.2,8850.61 9141.14,8762.71 8034.91,8665.12 6758.08,8749.3 5237.66,9021.95 2973.79,9424.96 1217.97,9227.55 0,8432.7 v 31.29 c 1222.44,790.38 2979.75,987.04 5242.88,583.29 6303.62,-1128.58 7739.12,1130.02 9258.82,3522.02 438.8,690.6 893.2,1405 1472.8,2033 94.6,102 190.7,201.1 289,296.5 h 36.5"
       style="fill:#94806d;fill-opacity:1;fill-rule:nonzero;stroke:none"
       id="path20059" /></g><g
     id="g20061"
     transform="matrix(7.1776416e-4,0,0,-7.1776416e-4,35.233568,10.349128)"><path
       d="m 16300,14423.5 c -239.4,-188.9 -470.9,-392.3 -692.3,-611.6 -609.4,-603.6 -1081.8,-1311.8 -1539,-1996.2 C 13350.4,10740.5 12608.3,9629.13 11333.3,8936.8 10647.4,8564.68 9864.23,8338.23 8939.69,8245.2 7904.8,8140.62 6718.47,8204.09 5312.9,8439.19 2947.44,8831.51 1163.98,8540.16 0,7573.78 v 33.18 c 1170.47,960.6 2955.38,1249.07 5317.22,856.75 5831.38,-975.03 7239.88,1133.69 8730.58,3365.69 457.9,685.9 931,1394.8 1542.6,2000.6 214.2,212 437.7,409.6 668.5,593.5 h 41.1"
       style="fill:#94806d;fill-opacity:1;fill-rule:nonzero;stroke:none"
       id="path20063" /></g><g
     id="g20065"
     transform="matrix(7.4583538e-4,0,0,-7.4583538e-4,35.233568,10.349128)"><path
       d="m 16300,13880.6 c -403.2,-260.9 -794,-553.8 -1159.7,-884.2 -637.8,-576.7 -1127.1,-1275.6 -1600.5,-1951.6 C 12844.4,10051.6 12126.1,9025.17 10924.7,8372.09 9578.32,7639.89 7753.01,7464.99 5345.42,7836.99 2882.31,8213.85 1084.77,7815.48 0,6652.98 v 35.39 C 1092.4,7842.54 2890.64,8236.75 5349.59,7861.28 10702,7034 12134.4,9080 13519.7,11058.7 c 474,677.4 964,1377.6 1603.9,1955.8 356.8,322.7 737.8,610 1131.3,866.1 h 45.1"
       style="fill:#94806d;fill-opacity:1;fill-rule:nonzero;stroke:none"
       id="path20067" /></g><g
     id="g20069"
     transform="matrix(7.8025784e-4,0,0,-7.8025784e-4,35.233568,10.349128)"><path
       d="m 16300,13268.2 c -591.8,-315.1 -1176.2,-686.6 -1713.6,-1127.8 -662.7,-544 -1164.9,-1230.6 -1650.6,-1894 C 12269.1,9335.51 11579.8,8394.13 10458,7781.81 9198.19,7094.51 7521.75,6910.75 5332.49,7219.9 2929.62,7554.26 1199.45,7113.09 190.399,5908.34 123.394,5828.73 60.3678,5745.8 0,5659.56 v 39.8 c 54.3997,77.62 112.116,151.92 172.484,224.23 1014.356,1210.73 2751.826,1654.55 5163.326,1318.86 4869.39,-687.29 6247.99,1196.13 7581.49,3017.85 486.2,664.7 989.8,1352 1654.5,1898 526.8,432.6 1099.3,798.8 1679.8,1109.9 h 48.4"
       style="fill:#94806d;fill-opacity:1;fill-rule:nonzero;stroke:none"
       id="path20071" /></g><g
     id="g20073"
     transform="matrix(8.2179846e-4,0,0,-8.2179846e-4,35.233568,10.349128)"><path
       d="m 16300,12597.6 c -789.2,-354 -1602.4,-790.5 -2341.9,-1339.8 -683.4,-507 -1194.2,-1176 -1688.1,-1823.48 -1107.3,-1450.61 -2248,-2944.68 -5415.66,-2944.68 -478.71,0 -1002.77,34.01 -1580.37,107.08 C 3025.94,6876.39 1407.78,6439.25 464.221,5296.02 283.445,5076.82 128.493,4833.06 0,4565.36 v 50.39 c 124.714,253.21 273.995,485.01 447.214,694.13 948.596,1149.53 2573.686,1589.81 4829.906,1308.88 4390.89,-557.44 5704.78,1164.02 6975.28,2828.79 495.1,648.75 1006.5,1318.95 1692.5,1827.95 726.9,540.4 1524.9,971.9 2300.9,1322.1 h 54.2"
       style="fill:#94806d;fill-opacity:1;fill-rule:nonzero;stroke:none"
       id="path20075" /></g><path
     d="m 35.292578,10.349128 h -0.01812 c -0.01449,-0.06678 -0.02847,-0.133032 -0.04089,-0.199288 v -0.09576 c 0.0176,0.09732 0.03727,0.195665 0.05901,0.29505"
     style="fill:#94806d;fill-opacity:1;fill-rule:nonzero;stroke:none;stroke-width:0.000517633"
     id="path20077" /><g
     id="g20079"
     transform="matrix(8.7003608e-4,0,0,-8.7003608e-4,35.233568,10.349128)"><path
       d="m 16300,11899.1 c -965,-381.4 -2038.3,-867.4 -3013.5,-1518.9 C 12586.9,9912.56 12094.3,9291.42 11572.5,8634 10508.7,7293.56 9412.79,5912.07 6454.67,5912.07 c -390.88,0 -813.3,24.4 -1273.2,75.56 C 3087.22,6215.5 1580.8,5782.97 703.238,4703.12 373.04,4296.77 138.03,3793.44 0,3213.95 v 108.88 c 141.599,539.03 371.252,1005.47 687.174,1393.38 882.316,1085.8 2394.696,1520.71 4496.676,1292.25 3930.28,-439.68 5171.35,1125.06 6372.55,2638.63 522.4,658.61 1016.2,1280.93 1718.3,1750.31 959.6,641.4 2014.5,1122.7 2967.6,1501.7 h 57.7"
       style="fill:#94806d;fill-opacity:1;fill-rule:nonzero;stroke:none"
       id="path20081" /></g><g
     id="g20083"
     transform="matrix(9.2129152e-4,0,0,-9.2129152e-4,35.233568,10.349128)"><path
       d="m 16300,11237.1 c -1080.4,-416.9 -2421,-936 -3656,-1673.75 C 11928.8,9135.78 11432.6,8531.78 10906.7,7892.95 9772.92,6513.59 8600.33,5087.6 5081.99,5424.72 3130.1,5603.95 1727.14,5177.5 911.33,4156.05 153.384,3208.2 -55.6237,1729.39 301.155,0 H 281.49 C 151.139,633.212 93.2659,1240.02 112.933,1792.88 147.768,2762.65 411.278,3562.17 895.598,4168.41 1715.91,5195.48 3125.04,5624.18 5083.67,5443.82 8591.9,5108.96 9761.12,6530.45 10891.6,7905.31 c 527,640.52 1024.2,1245.64 1742.3,1674.89 1218.1,728.2 2539.6,1242.8 3612.2,1656.9 h 53.9"
       style="fill:#94806d;fill-opacity:1;fill-rule:nonzero;stroke:none"
       id="path20085" /></g><g
     id="g20087"
     transform="matrix(9.6854176e-4,0,0,-9.6854176e-4,35.233568,10.349128)"><path
       d="m 16300,10688.9 c -334.6,-146.5 -721,-301.5 -1137.3,-467.7 -941.7,-376.75 -2009,-803.77 -3043.7,-1352.64 -735.3,-390.14 -1237.7,-980.7 -1769.5,-1606 C 9365.06,6105.49 8349.61,4912.07 5744.74,4912.07 c -231.42,0 -474.06,9.09 -731.66,28.86 -1831,140.03 -3146.8,-282.72 -3911.59,-1254.87 C 421.142,2821.33 219.656,1512.48 511.999,0 H 494.36 C 388.543,542.995 344.716,1065.68 366.094,1545.08 c 38.48,869 281.117,1593.17 720.426,2152.2 365.56,464.97 866.34,809.15 1487.9,1022.93 672.33,231.41 1493.77,311.58 2440.27,239.43 3146.8,-240.5 4252.03,1058.73 5320.41,2315.21 532.8,626.37 1036.8,1218.53 1775.4,1610.28 1035.2,549.41 2103,976.43 3045.3,1353.17 400.3,160.4 772.8,309.5 1097.7,450.6 h 46.5"
       style="fill:#94806d;fill-opacity:1;fill-rule:nonzero;stroke:none"
       id="path20089" /></g><g
     id="g20091"
     transform="matrix(0.00100535,0,0,-0.00100535,35.233568,10.349128)"><path
       d="M 16300,10297.6 C 15782.5,9996.35 14994.8,9678.16 14091.7,9313.62 13371.4,9023.23 12555.3,8693.71 11764.4,8324.54 10998.8,7967.73 10485,7380.77 9941.26,6759.31 9437.71,6184.2 8916.65,5589 8165.96,5160.1 7316.93,4675.6 6282.54,4475.83 5002.55,4549.46 3258.15,4649.35 2006.48,4223.54 1281.53,3283.89 669.856,2490.46 475.747,1327.35 713.621,0 h -18.536 c -83.41,465.449 -115.848,914.423 -94.223,1329.93 41.191,783.64 265.677,1444.75 666.768,1964.77 346,448.98 821.74,785.71 1413.34,1000.41 640.51,232.21 1421.58,323.86 2322.61,272.37 2851.39,-163.73 3904.83,1039.54 4924.29,2203.68 545.23,623 1060.13,1211.5 1828.83,1569.86 791.4,369.17 1608,698.69 2328.3,989.08 888.2,358.35 1664.1,671.9 2179.5,967.5 h 35.5"
       style="fill:#94806d;fill-opacity:1;fill-rule:nonzero;stroke:none"
       id="path20093" /></g><g
     id="g20095"
     transform="matrix(0.00101621,0,0,-0.00101621,35.233568,10.349128)"><path
       d="m 16300,10033.7 v -20.9 c -665.2,-461 -1881.6,-935.74 -3229.4,-1462.43 -438.1,-171.15 -890.4,-347.9 -1344.3,-531.79 C 10909.8,7687.49 10371.9,7087.95 9801.9,6453.27 9311.37,5906.2 8803.53,5340.8 8087.86,4925.15 7277.95,4454.99 6307.08,4248.19 5120.24,4292.5 3411.28,4355.67 2187.77,3914.55 1482.28,2980.86 922.478,2239.72 731.462,1186.33 924.006,0 h -18.337 c -66.219,403.425 -88.632,793.606 -66.728,1157.81 43.806,721.78 255.709,1338.64 629.079,1833.75 336.19,445.19 800.74,783.93 1380.4,1006.01 626.54,239.92 1391.11,345.36 2272.33,312.76 2646.2,-98.82 3673.61,1046.77 4667.91,2154.66 571.54,636.72 1110.94,1237.78 1931.04,1570.4 453.9,183.88 906.2,360.64 1344.2,531.79 1355,529.24 2576.5,1006.52 3236.1,1466.52"
       style="fill:#94806d;fill-opacity:1;fill-rule:nonzero;stroke:none"
       id="path20097" /></g><g
     id="g20099"
     transform="matrix(0.00101621,0,0,-0.00101621,35.233568,10.349128)"><path
       d="m 16300,9744.34 v -21.9 C 15418.3,9087.76 13680.8,8449.51 11813.9,7801.59 10935.3,7496.47 10367.3,6876.56 9765.74,6219.98 9283.87,5694.3 8785.7,5150.8 8097.53,4743.3 7347.73,4299.12 6468.04,4082.64 5412.11,4082.64 c -40.24,0 -80.48,0.51 -121.23,1.02 -42.79,0.51 -85.07,1.02 -127.35,1.02 -1607.07,0 -2805.12,-474.23 -3470.88,-1375.82 C 1171.56,2002.86 984.622,1063.57 1139.98,0 h -16.3 c -49.41,343.828 -63.67,677.469 -41.77,998.375 45.85,668.295 246.54,1246.945 596.48,1721.175 330.08,446.72 788.51,791.06 1362.58,1023.85 620.42,251.12 1377.35,372.35 2250.42,358.09 41.26,-0.51 82.52,-1.02 123.27,-1.02 2384.89,0 3377.15,1083.44 4337.83,2131.73 603.11,658.12 1172.61,1279.55 2055.81,1586.2 1874,650.47 3617.6,1290.75 4491.7,1925.94"
       style="fill:#94806d;fill-opacity:1;fill-rule:nonzero;stroke:none"
       id="path20101" /></g><g
     id="g20103"
     transform="matrix(0.00101621,0,0,-0.00101621,35.233568,10.349128)"><path
       d="m 16300,9449.42 v -22.93 C 16025.4,9221.22 15668.4,9011.86 15230.3,8799.96 14386.8,8391.44 13267.2,7982.92 11901.5,7584.59 10957.7,7309.02 10359.7,6667.21 9726.01,5987.7 9254.83,5481.89 8767.87,4958.77 8108.74,4559.42 7363.02,4107.6 6497.08,3883.98 5462.03,3875.32 3800.45,3861.57 2568.27,3362.38 1898.44,2432.27 1428.8,1779.25 1246.95,938.269 1362.58,0 h -18.34 c -115.12,941.834 67.75,1786.89 539.94,2442.45 673.39,935.22 1910.66,1436.95 3577.85,1450.7 C 7768.48,3912 8757.17,4973.54 9713.27,5999.42 10348,6681.47 10948,7324.81 11897,7601.91 c 1364.1,397.82 2483.2,806.34 3325.7,1213.84 443.1,214.96 802.2,425.84 1077.3,633.67"
       style="fill:#94806d;fill-opacity:1;fill-rule:nonzero;stroke:none"
       id="path20105" /></g><g
     id="g20107"
     transform="matrix(0.00101621,0,0,-0.00101621,35.233568,10.349128)"><path
       d="m 16300,9148.88 v -22.41 c -263.3,-204.26 -593.4,-406.99 -984.6,-605.14 -884.3,-446.72 -2034,-846.07 -3325.7,-1153.73 C 10977,7126.16 10349,6460.4 9684.24,5755.43 9225.29,5268.47 8750.04,4764.69 8120.97,4373.49 7408.86,3930.34 6595.39,3699.08 5633.18,3666.48 3976.69,3610.45 2755.21,3086.3 2099.13,2151.09 1682.47,1556.65 1509.28,814.491 1586.7,0 h -18.33 c -76.92,818.056 97.8,1563.78 516.5,2161.28 658.62,940.3 1885.71,1467 3547.8,1523.03 2142.94,72.84 3106.68,1094.65 4038.83,2083.34 666.3,707.02 1295.9,1374.81 2314.1,1617.27 1290.2,307.66 2438.9,705.99 3321.6,1152.2 395.8,199.68 728.4,405.47 992.8,611.76"
       style="fill:#94806d;fill-opacity:1;fill-rule:nonzero;stroke:none"
       id="path20109" /></g><g
     id="g20111"
     transform="matrix(0.00101621,0,0,-0.00101621,35.233568,10.349128)"><path
       d="m 16300,8841.22 v -22.92 c -248.1,-197.64 -549.6,-391.2 -899.6,-575.59 -903.6,-476.27 -2052.7,-854.23 -3323.1,-1092.1 C 10992.8,6947.37 10335.7,6255.63 9640.43,5523.15 8733.74,4568.58 7795.98,3581.42 5804.33,3458.15 4147.84,3355.76 2934.51,2805.13 2294.73,1864.82 1934.1,1334.56 1771.61,693.259 1813.37,0 h -17.82 c -41.77,696.825 121.23,1341.18 484.41,1874.5 642.83,944.89 1861.26,1499.09 3522.84,1601.47 1985.03,122.76 2920.25,1107.39 3824.9,2059.41 697.3,734.52 1356.5,1428.29 2446,1632.54 1268.9,237.88 2416,614.82 3318.1,1090.58 354.5,187.45 658.6,382.54 908.2,582.72"
       style="fill:#94806d;fill-opacity:1;fill-rule:nonzero;stroke:none"
       id="path20113" /></g><g
     id="g20115"
     transform="matrix(0.00101621,0,0,-0.00101621,35.233568,10.349128)"><path
       d="m 16300,8530.5 v -21.9 c -232.8,-191.53 -506.3,-374.39 -815,-544.01 C 14576.8,7465.4 13428.7,7108.84 12164.9,6933.61 11006.1,6773.16 10321,6053.41 9595.1,5290.88 8719.48,4370.95 7813.3,3418.92 5974.97,3249.81 4312.37,3096.49 3105.15,2516.82 2484.22,1573.46 2181.65,1113.49 2033.42,574.575 2044.12,0 h -17.83 c -10.69,578.141 138.55,1120.62 443.16,1583.65 623.98,947.94 1835.79,1530.16 3503.99,1683.99 1831.71,168.6 2735.34,1117.57 3608.92,2035.46 727.94,764.57 1415.04,1486.87 2579.94,1648.34 1721.7,238.39 3231,833.85 4137.7,1579.06"
       style="fill:#94806d;fill-opacity:1;fill-rule:nonzero;stroke:none"
       id="path20117" /></g><g
     id="g20119"
     transform="matrix(0.00101621,0,0,-0.00101621,35.233568,10.349128)"><path
       d="m 16300,8214.69 v -22.92 c -213.9,-179.81 -458.4,-349.43 -729.9,-504.79 -905.2,-519.06 -2052.3,-854.22 -3317.6,-970.36 C 11016.3,6603.54 10303.6,5852.72 9549.25,5058.09 8706.75,4170.76 7835.72,3253.38 6146.12,3040.97 4469.26,2830.6 3267.13,2221.38 2668.62,1279.04 2421.06,889.369 2290.15,457.419 2276.91,0 h -17.83 c 12.73,460.475 144.66,895.481 394.25,1288.21 288.31,453.85 722.3,834.86 1290.76,1132.85 602.08,315.3 1342.2,530.26 2199.99,637.74 1683.49,211.39 2551.97,1126.73 3392.44,2011.52 756.38,797.17 1471.58,1550.03 2714.48,1664.13 1262.7,115.62 2407.3,450.28 3310.4,967.81 275.1,157.91 522.6,330.07 738.6,512.43"
       style="fill:#94806d;fill-opacity:1;fill-rule:nonzero;stroke:none"
       id="path20121" /></g><g
     id="g20123"
     transform="matrix(0.00101621,0,0,-0.00101621,35.233568,10.349128)"><path
       d="m 16300,7893.27 v -22.92 c -193.6,-166.05 -409.5,-320.39 -644.9,-460.98 -897,-535.86 -2043.1,-850.15 -3314.5,-909.75 C 11023.4,6438.5 10284.8,5654.06 9502.9,4824.29 8697.07,3968.54 7863.73,3083.76 6317.27,2832.63 4641.93,2560.63 3409.76,1903.53 2847.41,982.584 2660.47,676.45 2550.95,345.356 2518.86,0 h -17.83 c 32.09,348.412 142.63,682.562 331.09,991.753 564.9,925.537 1801.66,1585.687 3482.6,1858.707 1540.35,250.11 2371.65,1132.34 3175.45,1986.06 784.43,832.82 1525.53,1619.3 2849.43,1680.93 1268.4,59.6 2411.9,372.87 3306.4,907.2 239.4,142.62 458.4,300.02 654,468.62"
       style="fill:#94806d;fill-opacity:1;fill-rule:nonzero;stroke:none"
       id="path20125" /></g><g
     id="g20127"
     transform="matrix(0.00101621,0,0,-0.00101621,35.233568,10.349128)"><path
       d="m 16300,7593.25 v -23.94 c -170.6,-143.13 -358.1,-277.1 -560.8,-400.37 -884.8,-536.37 -1998.8,-834.35 -3310.5,-885.8 -1389,-54.5 -2148.5,-858.81 -2952.29,-1709.97 C 8705.73,3756.64 7908.56,2912.61 6488.42,2624.3 4779.97,2277.42 3549.32,1589.25 3023.14,687.147 2893.76,465.569 2808.69,236.35 2767.43,0 h -18.84 c 41.77,239.406 127.85,471.681 258.76,696.316 C 3536.08,1603 4771.32,2293.72 6484.85,2641.62 7899.39,2928.91 8694.52,3770.9 9463.68,4585.39 10270,5439.11 11032,6245.96 12427.7,6300.97 c 1309.1,50.94 2420.1,348.41 3302.3,883.25 206.8,125.31 397.3,262.33 570,409.03"
       style="fill:#94806d;fill-opacity:1;fill-rule:nonzero;stroke:none"
       id="path20129" /></g><g
     id="g20131"
     transform="matrix(0.00101621,0,0,-0.00101621,35.233568,10.349128)"><path
       d="m 16300,7239.24 v -28.02 c -141.6,-123.27 -299.5,-242.97 -474.7,-356.56 -885.3,-573.56 -1998.3,-838.43 -3309.4,-788.51 -46.4,1.52 -92.8,2.54 -138.1,2.54 -1397.7,0 -2160.2,-835.37 -2965.57,-1718.12 C 8686.37,3555.44 7936.06,2732.8 6659.57,2415.97 4906.3,1980.45 3676.16,1264.27 3196.33,399.35 3124,268.441 3068.47,135.494 3030.27,0 h -17.83 c 38.21,138.55 94.75,274.553 168.61,408.009 481.87,868.991 1716.08,1588.231 3474.44,2025.271 1270.89,315.82 2019.68,1135.91 2743.5,1929.01 808.41,885.8 1573.41,1724.23 2978.31,1724.23 45.8,0 92.2,-1.02 139.6,-2.55 105.9,-4.07 210.3,-6.11 311.7,-6.11 1689.1,0 2778.6,544.01 3471.4,1161.38"
       style="fill:#94806d;fill-opacity:1;fill-rule:nonzero;stroke:none"
       id="path20133" /></g><g
     id="g20135"
     transform="matrix(0.00101621,0,0,-0.00101621,35.233568,10.349128)"><path
       d="m 16300,6912.22 v -34.13 c -119.2,-104.93 -248.6,-205.79 -389.2,-300.53 -870.5,-586.8 -1983,-832.32 -3306.8,-728.41 C 11028,5972.42 10221.6,5067.77 9368.42,4109.64 8686.37,3343.54 7980.89,2551.46 6830.72,2207.63 4993.4,1658.02 3796.88,937.25 3370.53,124.287 3349.14,83.0281 3329.27,41.7687 3311.45,0 h -18.85 c 18.34,44.3156 39.22,88.6312 62.14,132.437 428.9,817.547 1628.98,1540.863 3470.88,2092.003 1145.08,342.81 1849.04,1132.85 2529.56,1896.91 856.22,961.7 1665.12,1869.41 3249.82,1745.63 1793,-140.08 2952.8,385.6 3695,1045.24"
       style="fill:#94806d;fill-opacity:1;fill-rule:nonzero;stroke:none"
       id="path20137" /></g><g
     id="g20139"
     transform="matrix(0.00101621,0,0,-0.00101621,35.233568,10.349128)"><path
       d="m 16300,6565.33 v -23.94 c -643.9,-562.86 -1546.5,-957.11 -2812.3,-957.11 -251.1,0 -516,15.28 -796.1,47.88 C 11023.9,5827.25 10199.2,4874.21 9326.66,3864.63 8689.43,3127.56 8030.81,2365.54 7002.38,1999.3 5703.47,1536.27 4786.09,1084.46 4198.27,617.362 3941.03,413.612 3747.98,208.334 3618.6,0 h -20.88 c 130.4,213.428 326.5,423.291 589.34,631.625 589.35,467.605 1508.26,920.445 2809.21,1384.485 1024.35,364.71 1681.44,1125.21 2316.63,1860.23 875.6,1013.15 1702.3,1969.76 3380.7,1773.65 1696.2,-198.15 2837.8,237.88 3606.4,915.34"
       style="fill:#94806d;fill-opacity:1;fill-rule:nonzero;stroke:none"
       id="path20141" /></g><g
     id="g20143"
     transform="matrix(0.00101621,0,0,-0.00101621,35.233568,10.349128)"><path
       d="m 16300,6223.03 v -24.96 c -664.2,-577.63 -1503.2,-863.39 -2526,-863.39 -314.3,0 -645.4,27 -994.3,80.99 C 11015.2,5687.17 10175.3,4680.65 9286.92,3615.03 8697.07,2907.51 8086.84,2175.54 7173.53,1790.96 5769.18,1199.07 4538.53,635.191 3973.63,0 h -23.43 c 563.88,643.341 1802.68,1211.8 3216.2,1807.26 909.74,383.05 1517.93,1112.99 2106.77,1818.98 891.93,1069.69 1734.93,2080.29 3509.13,1806.75 1486.3,-228.71 2652.3,30.06 3517.7,790.04"
       style="fill:#94806d;fill-opacity:1;fill-rule:nonzero;stroke:none"
       id="path20145" /></g><g
     id="g20147"
     transform="matrix(0.00101621,0,0,-0.00101621,35.233568,10.349128)"><path
       d="m 16300,5874.62 v -20.88 c -43.3,-37.19 -87.6,-72.84 -132.4,-106.97 -831.8,-632.65 -1911.2,-811.95 -3300.3,-548.09 C 11003,5552.7 10151.3,4487.08 9249.74,3359.33 8708.27,2681.86 8148.47,1981.47 7344.68,1582.63 7075.73,1449.17 6814.93,1322.85 6562.79,1200.6 5648.97,757.95 4871.66,381.012 4389.79,0 h -28.01 c 482.89,387.634 1268.85,768.137 2193.37,1216.39 252.14,122.25 512.94,249.08 781.89,382.03 800.23,396.8 1358.5,1096.17 1898.95,1772.11 905.11,1132.34 1759.91,2201.52 3634.91,1845.47 1627.9,-309.19 2696.1,31.58 3429.1,658.62"
       style="fill:#94806d;fill-opacity:1;fill-rule:nonzero;stroke:none"
       id="path20149" /></g><g
     id="g20151"
     transform="matrix(0.00101621,0,0,-0.00101621,35.233568,10.349128)"><path
       d="m 16300,5530.79 v -22.41 c -15.3,-13.24 -31.1,-25.47 -46.9,-38.2 -812.9,-644.36 -1891.8,-804.31 -3297.7,-488.49 -1968.7,442.13 -2828.5,-688.68 -3739.28,-1885.2 -491.55,-646.4 -999.9,-1314.7 -1700.29,-1722.2 C 6954.5,1047.27 6407.94,773.741 5926.07,532.297 5544.55,341.281 5197.66,167.584 4910.88,0 h -34.63 c 292.38,172.678 648.94,350.959 1041.67,548.087 481.87,241.444 1027.92,514.983 1589.25,841.483 696.82,405.98 1204.16,1072.75 1694.69,1717.62 459.96,604.12 893.94,1174.62 1473.14,1555.63 648.4,425.84 1395.7,535.86 2284,336.19 1576,-354.02 2613.1,-77.94 3341,531.78"
       style="fill:#94806d;fill-opacity:1;fill-rule:nonzero;stroke:none"
       id="path20153" /></g><g
     id="g20155"
     transform="matrix(0.00101621,0,0,-0.00101621,35.233568,10.349128)"><path
       d="m 16300,5186.97 v -24.96 c -464,-369.3 -1057,-595.97 -1845.5,-596.48 -413.6,0 -880.7,62.65 -1411.4,199.67 C 10966.8,5301.07 10101.9,4098.43 9186.58,2824.99 8745.46,2211.71 8289.57,1577.53 7687.49,1165.96 6959.08,668.3 6223.54,318.359 5632.67,37.1844 5606.18,24.45 5580.2,12.225 5554.73,0 h -40.75 c 36.17,17.3187 73.35,35.1469 111.05,52.975 590.36,281.175 1324.88,630.606 2052.27,1127.755 599.53,410.05 1054.41,1042.69 1494.51,1654.45 440.1,612.27 895.49,1245.42 1490.89,1643.24 667.3,446.22 1447.7,545.55 2384.9,304.1 1543.4,-398.33 2547.9,-163.51 3252.4,404.45"
       style="fill:#94806d;fill-opacity:1;fill-rule:nonzero;stroke:none"
       id="path20157" /></g><g
     id="g20159"
     transform="matrix(0.00101621,0,0,-0.00101621,35.233568,10.349128)"><path
       d="m 16300,4842.12 v -25.98 c -765.1,-576.61 -1804.2,-664.22 -3168.8,-267.93 -2190.3,635.7 -3095.5,-706.5 -3970.6,-2004.9 C 8771.44,1965.17 8368.52,1367.67 7858.64,958.134 7334.49,536.881 6785.38,233.803 6288.23,0 h -41.76 c 504.79,235.841 1066.63,541.975 1600.96,971.887 507.85,408.013 909.74,1004.483 1298.4,1581.103 438.06,649.96 891.37,1322.33 1502.17,1740.53 686.6,469.65 1500.1,558.79 2487.8,272.01 1506.2,-437.56 2485.7,-234.82 3164.2,276.59"
       style="fill:#94806d;fill-opacity:1;fill-rule:nonzero;stroke:none"
       id="path20161" /></g><g
     id="g20163"
     transform="matrix(0.00101621,0,0,-0.00101621,35.233568,10.349128)"><path
       d="m 16300,4494.22 v -22.93 c -313.8,-223.1 -669.8,-357.07 -1079.9,-408.01 -565.4,-70.8 -1220.4,16.81 -2001.3,267.94 -2310,743.17 -3209.1,-693.26 -4078.58,-2082.33 C 8802.51,1709.46 8453.59,1151.7 8030.3,749.8 7699.71,436.534 7347.22,193.053 7000.34,0 h -38.2 c 355.54,194.581 717.2,441.628 1055.93,763.044 421.76,400.366 754.39,932.156 1106.87,1495.016 873.07,1395.18 1776.16,2837.22 4099.46,2090.47 1328.4,-427.36 2338,-379.99 3075.6,145.69"
       style="fill:#94806d;fill-opacity:1;fill-rule:nonzero;stroke:none"
       id="path20165" /></g><g
     id="g20167"
     transform="matrix(0.00101621,0,0,-0.00101621,35.233568,10.349128)"><path
       d="m 16300,4150.9 v -20.38 c -650.5,-426.35 -1574,-514.98 -2993.1,-15.79 -1091.1,383.56 -1969.7,314.29 -2685.9,-211.9 C 9986.3,3435.73 9548.74,2675.24 9125.45,1939.19 8826.96,1419.63 8544.77,929.1 8201.45,541.975 8013.49,330.075 7811.77,151.284 7603.95,0 h -31.07 c 213.94,153.322 422.27,335.678 615.32,553.691 342.3,386.106 623.99,875.619 921.97,1394.159 423.8,737.57 862.37,1500.11 1500.13,1969.24 721.3,530.26 1605.5,600.05 2702.2,214.45 1311.7,-461.49 2270.3,-457.42 2987.5,19.36"
       style="fill:#94806d;fill-opacity:1;fill-rule:nonzero;stroke:none"
       id="path20169" /></g><g
     id="g20171"
     transform="matrix(0.00101621,0,0,-0.00101621,35.233568,10.349128)"><path
       d="m 16300,3814.2 v -21.39 c -56,-33.11 -113.6,-63.68 -173.7,-91.18 -672.4,-310.21 -1566.3,-246.03 -2731.8,196.11 -1148.6,439.59 -2062.9,378.97 -2794.4,-185.42 C 9954.72,3214.16 9530.92,2401.19 9120.87,1614.72 8875.86,1144.06 8643.58,699.372 8372.6,334.15 8282.44,211.9 8186.67,100.856 8087.35,0 h -24.96 c 103.4,103.403 202.22,218.012 295.94,344.847 269.97,364.203 501.74,807.873 746.75,1278.023 411.06,788 835.88,1603 1484.32,2103.72 736.6,568.46 1656.5,630.09 2811.7,187.96 1160.9,-440.61 2049.8,-504.79 2717.6,-196.62 62.6,29.03 123.2,61.12 181.3,96.27"
       style="fill:#94806d;fill-opacity:1;fill-rule:nonzero;stroke:none"
       id="path20173" /></g><g
     id="g20175"
     transform="matrix(0.00101621,0,0,-0.00101621,35.233568,10.349128)"><path
       d="m 16300,3478.52 v -20.37 c -32.1,-17.32 -65.2,-33.11 -98.8,-48.39 -659.7,-296.46 -1548.5,-207.83 -2718.6,270.98 C 10760.5,4795.77 9887.48,2916.17 9117.3,1258.16 8926.29,847.091 8745.97,458.947 8543.75,126.325 8517.26,82.5187 8489.75,40.75 8461.74,0 h -21.91 c 30.57,43.2969 60.11,88.6312 88.64,135.494 201.71,331.603 382.03,719.747 573.04,1130.306 773.23,1665.14 1649.89,3552.89 4387.79,2431.75 1165.4,-477.28 2050.2,-565.91 2704.7,-271.49 36.2,16.3 71.4,33.61 106,52.46"
       style="fill:#94806d;fill-opacity:1;fill-rule:nonzero;stroke:none"
       id="path20177" /></g><g
     id="g20179"
     transform="matrix(0.00101621,0,0,-0.00101621,35.233568,10.349128)"><path
       d="m 16300,3331.82 v -19.86 c -13.2,-7.14 -26.5,-13.25 -40.2,-19.36 -646.4,-291.87 -1516.5,-208.84 -2660.5,255.2 -807.9,327.02 -1486.4,406.48 -2074.7,242.46 C 10385.6,3471.9 9811.58,2257.04 9304.75,1184.81 9117.3,788.512 8940.55,413.612 8742.91,92.1969 8723.56,60.6156 8703.69,30.0531 8683.32,0 h -21.91 c 22.92,32.6 44.83,66.7281 66.22,101.366 197.13,320.906 373.88,694.787 561.33,1091.084 507.85,1075.29 1083.94,2294.22 2230.54,2614.62 591.9,165.55 1275,86.08 2086.4,-242.97 1139.5,-461.5 2004.9,-545.03 2646.7,-255.2 15.8,7.13 31.6,14.77 47.4,22.92"
       style="fill:#94806d;fill-opacity:1;fill-rule:nonzero;stroke:none"
       id="path20181" /></g><g
     id="g20183"
     transform="matrix(0.00101621,0,0,-0.00101621,35.233568,10.349128)"><path
       d="m 16300,3186.65 v -19.36 c -631.1,-278.12 -1477.2,-196.62 -2584.1,247.05 -788.5,315.81 -1452.7,392.22 -2030.8,233.29 C 10563.4,3338.95 9994.45,2155.67 9492.2,1111.46 9308.32,729.425 9135.13,368.787 8942.08,58.0687 8929.85,38.2031 8917.12,18.8469 8904.38,0 h -21.39 c 14.77,21.9031 29.54,44.825 43.81,67.7469 192.54,309.1901 365.73,669.8281 549.1,1051.3531 503.77,1047.27 1074.8,2234.62 2204.6,2545.85 581.7,159.95 1250,83.03 2042.1,-233.8 1106.8,-444.18 1949.8,-524.15 2577.4,-244.5"
       style="fill:#94806d;fill-opacity:1;fill-rule:nonzero;stroke:none"
       id="path20185" /></g><g
     id="g20187"
     transform="matrix(0.00101621,0,0,-0.00101621,35.233568,10.349128)"><path
       d="m 16300,3044.02 v -18.84 c -611.3,-243.99 -1419.6,-159.44 -2467.4,255.7 -768.7,304.61 -1418.6,377.96 -1987.1,224.13 C 10741.2,3205.5 10176.8,2054.31 9679.14,1038.11 9499.33,670.337 9329.2,323.453 9141.24,23.9406 9136.15,15.7906 9131.06,8.15 9125.45,0 h -21.39 c 7.64,11.2062 14.77,22.4125 21.9,33.6187 187.45,298.4933 357.58,645.3783 537.39,1012.1313 499.15,1019.77 1065.15,2175.03 2177.55,2476.58 572.1,154.34 1225.6,80.99 1998.3,-224.64 1046.8,-415.14 1853.1,-498.67 2460.8,-253.67"
       style="fill:#94806d;fill-opacity:1;fill-rule:nonzero;stroke:none"
       id="path20189" /></g><g
     id="g20191"
     transform="matrix(0.00101621,0,0,-0.00101621,35.233568,10.349128)"><path
       d="m 16300,2904.46 v -18.85 c -590.4,-211.9 -1361.6,-125.31 -2350.3,262.33 -749.8,292.38 -1385.5,363.18 -1943.7,214.95 C 10921.5,3073.57 10363.2,1956.51 9870.67,970.869 9694.93,619.4 9528.88,286.778 9346.52,0 h -20.88 c 184.39,289.325 351.47,623.984 529.24,978.509 494.12,989.211 1053.92,2109.831 2146.52,2401.701 562.3,148.74 1201.6,78.45 1954.5,-215.97 987.6,-387.13 1756.8,-472.7 2344.1,-259.78"
       style="fill:#94806d;fill-opacity:1;fill-rule:nonzero;stroke:none"
       id="path20193" /></g><g
     id="g20195"
     transform="matrix(0.00101621,0,0,-0.00101621,35.233568,10.349128)"><path
       d="m 16300,2766.92 v -18.84 c -569.5,-181.85 -1303,-93.73 -2233.6,266.4 -729.9,281.18 -1351.4,348.41 -1900,205.79 C 11099.8,2940.62 10546.6,1855.65 10058.6,898.537 9893.59,575.084 9737.21,268.441 9567.08,0 h -21.39 c 172.17,269.969 330.07,579.669 496.61,906.687 490,960.173 1045.3,2048.703 2120,2330.903 551.7,143.64 1176.7,76.4 1910.2,-206.3 930.1,-360.13 1661.6,-447.23 2227.5,-264.37"
       style="fill:#94806d;fill-opacity:1;fill-rule:nonzero;stroke:none"
       id="path20197" /></g><g
     id="g20199"
     transform="matrix(0.00101621,0,0,-0.00101621,35.233568,10.349128)"><path
       d="m 16300,2631.43 v -17.83 c -547.1,-154.85 -1243.9,-66.22 -2117,267.42 -710.5,269.97 -1317.7,334.15 -1855.6,196.62 C 11277.6,2807.67 10729.5,1755.31 10246.1,826.716 10091.7,530.259 9945.55,249.084 9787.64,0 h -20.88 c 159.43,251.122 307.64,535.353 463.54,834.866 485.4,931.644 1035.5,1988.094 2092.5,2260.094 542,138.55 1152.7,73.86 1866.3,-197.13 872.6,-333.13 1566.9,-421.25 2110.9,-266.4"
       style="fill:#94806d;fill-opacity:1;fill-rule:nonzero;stroke:none"
       id="path20201" /></g><g
     id="g20203"
     transform="matrix(0.00101621,0,0,-0.00101621,35.233568,10.349128)"><path
       d="m 16300,2498.48 v -18.33 c -524.1,-128.88 -1182.8,-39.73 -2000.3,267.93 -691.2,258.25 -1283.6,319.38 -1811.9,187.45 C 11455.8,2674.73 10912.3,1654.45 10433.5,754.384 10290.4,485.434 10153.9,229.728 10009.7,0 h -20.35 c 145.65,231.766 283.75,490.528 428.35,762.534 480.9,903.636 1025.9,1927.476 2065.6,2190.316 531.7,132.94 1128.2,71.31 1822.5,-187.96 816,-307.67 1472.6,-395.79 1994.2,-266.41"
       style="fill:#94806d;fill-opacity:1;fill-rule:nonzero;stroke:none"
       id="path20205" /></g><g
     id="g20207"
     transform="matrix(0.00101621,0,0,-0.00101621,35.233568,10.349128)"><path
       d="m 16300,2367.57 v -18.33 c -500.2,-104.93 -1121.1,-16.81 -1883.7,265.38 -671.3,247.05 -1250,305.12 -1768,178.28 C 11633.6,2541.78 11095.2,1553.59 10620.5,682.053 10489,440.609 10363.2,209.862 10231.3,0 h -20.9 c 133.5,211.391 260.8,445.703 394.3,690.712 476.8,874.598 1017.2,1866.348 2039.5,2119.508 521.6,127.85 1103.3,69.28 1778.2,-178.79 761,-282.19 1379.9,-369.3 1877.6,-263.86"
       style="fill:#94806d;fill-opacity:1;fill-rule:nonzero;stroke:none"
       id="path20209" /></g><g
     id="g20211"
     transform="matrix(0.00101621,0,0,-0.00101621,35.233568,10.349128)"><path
       d="m 16300,2238.19 v -17.82 c -475.8,-83.54 -1059,3.05 -1767,260.8 -652,235.33 -1215.9,290.85 -1724.3,169.11 C 11811.4,2408.83 11278.1,1452.74 10806.9,609.722 10687.2,394.766 10572.6,188.978 10453.9,0 h -21.4 c 120.7,191.525 237.4,400.369 359.1,618.381 472.7,846.579 1008.1,1805.739 2013.1,2049.219 511.4,122.76 1078.8,67.23 1734.4,-169.63 706.5,-256.72 1287.7,-343.31 1760.9,-259.78"
       style="fill:#94806d;fill-opacity:1;fill-rule:nonzero;stroke:none"
       id="path20213" /></g><g
     id="g20215"
     transform="matrix(0.00101621,0,0,-0.00101621,35.233568,10.349128)"><path
       d="m 16300,2111.36 v -17.83 c -450.8,-64.18 -995.8,20.38 -1650.4,254.69 -632.6,223.61 -1182.2,276.08 -1680.4,159.94 C 11989.2,2275.89 11459.9,1351.88 10993.3,536.881 10885.9,348.922 10782.4,168.094 10676,0 h -20.9 c 108,170.641 213.4,354.525 322.9,546.05 468.7,818.06 999.4,1745.63 1987.1,1979.43 501.8,117.16 1054.4,64.18 1690.6,-160.45 653.1,-233.81 1196,-317.85 1644.3,-253.67"
       style="fill:#94806d;fill-opacity:1;fill-rule:nonzero;stroke:none"
       id="path20217" /></g><g
     id="g20219"
     transform="matrix(0.00101621,0,0,-0.00101621,35.233568,10.349128)"><path
       d="m 16300,1986.56 v -17.83 c -424.8,-46.35 -931.6,35.15 -1533.2,246.03 -613.3,212.41 -1148.7,261.82 -1636.6,150.78 C 12166.4,2142.94 11642.3,1251.02 11179.8,464.55 11084.5,302.569 10992.8,146.7 10900.1,0 h -21.9 c 95.3,149.247 189,308.172 286.3,473.719 464,789.531 990.7,1685.011 1961.6,1909.141 491,111.55 1029.9,62.14 1646.3,-151.29 600,-210.37 1105.3,-291.87 1527.6,-245.01"
       style="fill:#94806d;fill-opacity:1;fill-rule:nonzero;stroke:none"
       id="path20221" /></g><g
     id="g20223"
     transform="matrix(0.00101621,0,0,-0.00101621,35.233568,10.349128)"><path
       d="m 16300,1865.84 v -17.32 c -397.8,-32.09 -867,45.34 -1416.6,232.79 -591.9,201.71 -1112.4,248.06 -1592.8,141.6 C 12343.7,2009.99 11823.6,1150.17 11365.2,391.709 11283.2,256.216 11203.7,124.797 11123.7,0 h -20.9 c 82.1,127.344 163,261.819 247.1,400.878 460.5,761.512 982.6,1624.902 1936.6,1839.862 483.4,106.46 1007.6,60.11 1602.5,-142.12 548.6,-186.94 1015.7,-264.36 1411,-232.78"
       style="fill:#94806d;fill-opacity:1;fill-rule:nonzero;stroke:none"
       id="path20225" /></g><g
     id="g20227"
     transform="matrix(0.00101621,0,0,-0.00101621,35.233568,10.349128)"><path
       d="m 16300,1744.61 v -18.34 c -369.8,-18.85 -799.2,55.52 -1299.9,222.09 -573.6,190.51 -1080.4,233.8 -1549,132.44 C 12520.4,1879.08 12004.9,1050.84 11550.6,319.887 11482.3,209.862 11415.6,102.894 11348.9,0 h -20.9 c 68.2,105.441 137,215.466 207.3,329.056 456.4,734.014 973.9,1565.814 1912.2,1769.064 471.7,102.38 981.1,58.57 1558.2,-132.95 498.7,-165.55 926,-239.92 1294.3,-220.56"
       style="fill:#94806d;fill-opacity:1;fill-rule:nonzero;stroke:none"
       id="path20229" /></g><g
     id="g20231"
     transform="matrix(0.00101621,0,0,-0.00101621,35.233568,10.349128)"><path
       d="m 16300,1625.42 v -17.83 c -341.3,-8.15 -732.5,61.63 -1183.3,207.31 -554.2,179.3 -1046.7,219.54 -1505.2,123.27 C 12697.2,1746.14 12186.3,949.984 11735,247.047 11681,162.491 11628,79.9719 11575,0 h -21.4 c 55.1,83.0281 110.1,169.112 166.6,256.725 452.8,705.484 965.8,1505.715 1887.8,1698.765 461.4,97.29 957.1,56.54 1514.3,-123.78 448.8,-145.17 838.5,-213.94 1177.7,-206.29"
       style="fill:#94806d;fill-opacity:1;fill-rule:nonzero;stroke:none"
       id="path20233" /></g><g
     id="g20235"
     transform="matrix(0.00101621,0,0,-0.00101621,35.233568,10.349128)"><path
       d="m 16300,1507.24 v -17.83 c -311.7,2.04 -665.2,66.22 -1066.6,192.04 -534.9,168.09 -1012.7,205.27 -1461.4,114.1 C 12873.4,1613.7 12366.1,848.619 11918.9,173.697 11879.6,114.609 11841.4,56.5406 11803.2,0 h -21.4 c 40.3,59.5969 81,121.231 122.3,183.375 449.3,677.978 958.6,1446.115 1864.3,1629.995 451.8,91.69 932.7,54 1470.6,-114.6 399.3,-125.31 751.3,-189.49 1061,-191.53"
       style="fill:#94806d;fill-opacity:1;fill-rule:nonzero;stroke:none"
       id="path20237" /></g><g
     id="g20239"
     transform="matrix(0.00101621,0,0,-0.00101621,35.233568,10.349128)"><path
       d="m 16300,1391.1 v -17.83 c -281.2,9.17 -596,67.75 -949.5,175.23 -515.5,155.87 -979.5,190.51 -1418.1,104.93 C 13049.2,1480.75 12545.9,747.253 12102.2,100.347 12078.8,66.7281 12055.9,33.1094 12033.5,0 h -21.9 c 24.9,36.1656 50.4,72.8406 75.9,110.025 445.7,649.962 951,1387.025 1841.9,1560.725 441.6,86.08 907.7,51.96 1426.2,-105.44 351.5,-106.97 664.8,-165.04 944.4,-174.21"
       style="fill:#94806d;fill-opacity:1;fill-rule:nonzero;stroke:none"
       id="path20241" /></g><g
     id="g20243"
     transform="matrix(0.00101621,0,0,-0.00101621,35.233568,10.349128)"><path
       d="m 16300,1278.02 v -18.34 c -245,13.76 -520.6,63.68 -832.8,155.36 -496.2,144.67 -945.4,176.25 -1373.8,95.77 -869,-163 -1368.7,-864.923 -1809.3,-1484.3225 C 12278,17.8281 12271.4,8.65937 12265.2,0 h -21.9 c 8.7,12.225 17.4,24.45 26,36.675 443.2,621.947 944.9,1327.435 1820.5,1491.955 431.5,80.49 883.3,49.41 1382.5,-96.78 310.7,-90.67 584.2,-140.58 827.7,-153.83"
       style="fill:#94806d;fill-opacity:1;fill-rule:nonzero;stroke:none"
       id="path20245" /></g><g
     id="g20247"
     transform="matrix(0.00101621,0,0,-0.00101621,35.233568,10.349128)"><path
       d="m 16300,1164.43 v -18.34 c -218,17.32 -455.9,62.66 -716.2,135.5 -476.8,133.45 -911.8,161.98 -1330,87.1 C 13422.5,1218.93 12930,579.669 12500.6,0 h -22.4 c 433.4,584.762 929.1,1234.22 1772.1,1386.01 421.2,75.9 858.8,46.86 1338.1,-87.1 258.3,-72.34 495.1,-117.16 711.6,-134.48"
       style="fill:#94806d;fill-opacity:1;fill-rule:nonzero;stroke:none"
       id="path20249" /></g><g
     id="g20251"
     transform="matrix(0.00101621,0,0,-0.00101621,35.233568,10.349128)"><path
       d="m 16300,1052.37 v -17.83 c -184.9,18.34 -384.6,56.54 -599.5,113.59 -457.5,122.25 -878.2,147.72 -1286.2,77.94 C 13633.4,1092.1 13152.6,531.278 12739,0 h -22.5 c 417.2,536.881 902.1,1108.4 1694.7,1243.38 410.6,70.3 833.9,44.83 1293.8,-77.93 216,-57.56 413.7,-94.74 595,-113.08"
       style="fill:#94806d;fill-opacity:1;fill-rule:nonzero;stroke:none"
       id="path20253" /></g><g
     id="g20255"
     transform="matrix(0.00101621,0,0,-0.00101621,35.233568,10.349128)"><path
       d="m 16300,941.325 v -17.828 c -150.8,17.828 -311.7,48.39 -482.4,91.683 -438.6,110.54 -845,132.95 -1242.9,68.26 C 13846.8,965.775 13379.8,480.85 12982.9,0 h -23.4 c 400.9,486.962 872.6,981.056 1612.2,1101.27 400.4,64.69 809.4,42.28 1250,-68.77 169.1,-42.784 328.5,-73.347 478.3,-91.175"
       style="fill:#94806d;fill-opacity:1;fill-rule:nonzero;stroke:none"
       id="path20257" /></g><g
     id="g20259"
     transform="matrix(0.00101621,0,0,-0.00101621,35.233568,10.349128)"><path
       d="m 16300,830.791 v -18.338 c -116.1,15.791 -237.9,39.222 -365.7,69.275 -419.2,99.328 -811,118.682 -1199.1,59.597 C 14062.8,838.431 13612.5,427.366 13233.1,0 h -23.5 c 383.1,433.987 838.5,854.222 1523.1,958.644 389.6,59.596 784.4,40.24 1205.6,-59.597 126.4,-29.544 246.6,-52.975 361.7,-68.256"
       style="fill:#94806d;fill-opacity:1;fill-rule:nonzero;stroke:none"
       id="path20261" /></g><g
     id="g20263"
     transform="matrix(0.00101621,0,0,-0.00101621,35.233568,10.349128)"><path
       d="m 16300,720.256 v -18.337 c -80,11.715 -163,27.506 -249.1,46.353 -399.8,87.612 -777.8,104.422 -1155.2,50.428 C 14281.3,711.087 13851.9,371.334 13491.8,0 h -24.4 c 364.2,378.466 799.2,726.878 1425.7,816.528 379.5,53.994 759.5,37.694 1161.9,-50.937 84.5,-18.338 166.6,-33.619 245,-45.335"
       style="fill:#94806d;fill-opacity:1;fill-rule:nonzero;stroke:none"
       id="path20265" /></g><g
     id="g20267"
     transform="matrix(0.00101621,0,0,-0.00101621,35.233568,10.349128)"><path
       d="m 16300,609.212 v -17.828 c -42.8,6.622 -87.1,14.772 -131.9,23.941 -381.6,75.897 -744.7,89.65 -1112,40.75 C 14504.5,583.234 14101.5,312.247 13762.8,0 h -27 c 343.8,319.378 753.4,599.025 1318.3,673.903 368.8,48.9 734,35.147 1117.5,-41.259 43.8,-8.66 86.6,-16.81 128.4,-23.432"
       style="fill:#94806d;fill-opacity:1;fill-rule:nonzero;stroke:none"
       id="path20269" /></g><g
     id="g20271"
     transform="matrix(0.00101621,0,0,-0.00101621,35.233568,10.349128)"><path
       d="m 16300,497.15 v -17.828 c -5.1,0.509 -10.2,1.528 -15.3,2.547 -362.7,64.69 -711.6,74.878 -1068.1,32.09 C 14733.7,455.381 14363.9,250.103 14051.1,0 h -28 c 318.4,257.744 695.3,471.172 1191.4,531.278 358.1,43.806 709.1,33.109 1073.3,-32.091 4,-0.509 8.1,-1.528 12.2,-2.037"
       style="fill:#94806d;fill-opacity:1;fill-rule:nonzero;stroke:none"
       id="path20273" /></g><g
     id="g20275"
     transform="matrix(0.00101621,0,0,-0.00101621,35.233568,10.349128)"><path
       d="m 16300,380.503 v -17.828 c -308.7,39.731 -611.8,42.787 -922.5,8.659 C 14973.6,327.019 14648.1,184.394 14369,0 h -32.6 c 285.7,192.544 620.4,343.319 1039.1,389.162 311.2,34.129 614.8,31.582 924.5,-8.659"
       style="fill:#94806d;fill-opacity:1;fill-rule:nonzero;stroke:none"
       id="path20277" /></g><g
     id="g20279"
     transform="matrix(0.00101621,0,0,-0.00101621,35.233568,10.349128)"><path
       d="m 16300,255.197 v -17.828 c -252.1,19.356 -503.8,16.809 -762.5,-8.66 C 15229.8,199.166 14967,115.119 14735.7,0 h -40.2 c 240.9,123.778 516,214.956 840.4,246.537 259.3,25.469 510.9,28.016 764.1,8.66"
       style="fill:#94806d;fill-opacity:1;fill-rule:nonzero;stroke:none"
       id="path20281" /></g><g
     id="g20283"
     transform="matrix(0.00101621,0,0,-0.00101621,35.233568,10.349128)"><path
       d="m 16300,120.722 v -17.828 c -198.1,6.112 -396.8,0.509 -602.1,-16.3003 C 15530.3,72.3312 15374.5,42.2781 15229.8,0 h -63.2 c 162.5,51.4469 338.3,88.1219 530.3,104.422 205.3,16.809 404.4,22.412 603.1,16.3"
       style="fill:#94806d;fill-opacity:1;fill-rule:nonzero;stroke:none"
       id="path20285" /></g><g
     id="g20762"
     transform="matrix(3.3946028e-4,0,0,-3.3946028e-4,2.1726406,7.2003115)" /><g
     id="g20766"
     transform="matrix(3.3946028e-4,0,0,-3.3946028e-4,2.1726406,7.2003115)" /><g
     id="g20770"
     transform="matrix(3.3946028e-4,0,0,-3.3946028e-4,2.1726406,7.2003115)" /><g
     id="g20774"
     transform="matrix(3.3946028e-4,0,0,-3.3946028e-4,2.1726406,7.2003115)" /><g
     id="g20778"
     transform="matrix(3.3946028e-4,0,0,-3.3946028e-4,2.1726406,7.2003115)" /><g
     id="g20782"
     transform="matrix(3.3946028e-4,0,0,-3.3946028e-4,2.1726406,7.2003115)" /><g
     id="g20786"
     transform="matrix(3.3946028e-4,0,0,-3.3946028e-4,2.1726406,7.2003115)" /><g
     id="g20790"
     transform="matrix(3.3946028e-4,0,0,-3.3946028e-4,2.1726406,7.2003115)" /><g
     id="g20794"
     transform="matrix(3.3946028e-4,0,0,-3.3946028e-4,2.1726406,7.2003115)" /><g
     id="g20798"
     transform="matrix(3.3946028e-4,0,0,-3.3946028e-4,2.1726406,7.2003115)" /><g
     id="g20802"
     transform="matrix(3.3946028e-4,0,0,-3.3946028e-4,2.1726406,7.2003115)" /><g
     id="g20806"
     transform="matrix(3.3946028e-4,0,0,-3.3946028e-4,2.1726406,7.2003115)" /><g
     id="g20810"
     transform="matrix(3.3946028e-4,0,0,-3.3946028e-4,2.1726406,7.2003115)" /><g
     id="g20814"
     transform="matrix(3.3946028e-4,0,0,-3.3946028e-4,2.1726406,7.2003115)" /><g
     id="g20818"
     transform="matrix(3.3946028e-4,0,0,-3.3946028e-4,2.1726406,7.2003115)" /><g
     id="g20822"
     transform="matrix(3.3946028e-4,0,0,-3.3946028e-4,2.1726406,7.2003115)" /><g
     id="g20826"
     transform="matrix(3.3946028e-4,0,0,-3.3946028e-4,2.1726406,7.2003115)" /><g
     id="g20830"
     transform="matrix(3.3946028e-4,0,0,-3.3946028e-4,2.1726406,7.2003115)" /><g
     id="g20834"
     transform="matrix(3.3946028e-4,0,0,-3.3946028e-4,2.1726406,7.2003115)" /><g
     id="g20838"
     transform="matrix(3.3946028e-4,0,0,-3.3946028e-4,2.1726406,7.2003115)" /><g
     id="g20842"
     transform="matrix(3.3946028e-4,0,0,-3.3946028e-4,2.1726406,7.2003115)" /><g
     id="g20846"
     transform="matrix(3.3946028e-4,0,0,-3.3946028e-4,2.1726406,7.2003115)" /><g
     id="g20850"
     transform="matrix(3.3946028e-4,0,0,-3.3946028e-4,2.1726406,7.2003115)" /><g
     id="g20854"
     transform="matrix(3.3946028e-4,0,0,-3.3946028e-4,2.1726406,7.2003115)" /><g
     id="g20858"
     transform="matrix(3.3946028e-4,0,0,-3.3946028e-4,2.1726406,7.2003115)" /><g
     id="g20862"
     transform="matrix(3.3946028e-4,0,0,-3.3946028e-4,2.1726406,7.2003115)" /><g
     id="g20866"
     transform="matrix(3.3946028e-4,0,0,-3.3946028e-4,2.1726406,7.2003115)" /><g
     id="g20870"
     transform="matrix(3.3946028e-4,0,0,-3.3946028e-4,2.1726406,7.2003115)" /><g
     id="g20874"
     transform="matrix(3.4277178e-4,0,0,-3.4277178e-4,2.1726406,7.2003115)" /><g
     id="g20878"
     transform="matrix(3.5310805e-4,0,0,-3.5310805e-4,2.1726406,7.2003115)" /><g
     id="g20882"
     transform="matrix(3.6140781e-4,0,0,-3.6140781e-4,2.1726406,7.2003115)" /><g
     id="g20886"
     transform="matrix(3.7138688e-4,0,0,-3.7138688e-4,2.1726406,7.2003115)" /><g
     id="g20890"
     transform="matrix(3.8362632e-4,0,0,-3.8362632e-4,2.1726406,7.2003115)" /><g
     id="g20894"
     transform="matrix(3.9862966e-4,0,0,-3.9862966e-4,2.1726406,7.2003115)" /><g
     id="g20898"
     transform="matrix(4.1702757e-4,0,0,-4.1702757e-4,2.1726406,7.2003115)" /><g
     id="g20902"
     transform="matrix(4.3922995e-4,0,0,-4.3922995e-4,2.1726406,7.2003115)" /><g
     id="g20908"
     transform="matrix(4.6501171e-4,0,0,-4.6501171e-4,2.1726406,7.2003115)" /><g
     id="g20912"
     transform="matrix(4.9240642e-4,0,0,-4.9240642e-4,2.1726406,7.2003115)" /><g
     id="g20916"
     transform="matrix(5.1766043e-4,0,0,-5.1766043e-4,2.1726406,7.2003115)" /><g
     id="g20920"
     transform="matrix(5.3733349e-4,0,0,-5.3733349e-4,2.1726406,7.2003115)" /><g
     id="g20924"
     transform="matrix(5.4313787e-4,0,0,-5.4313787e-4,2.1726406,7.2003115)" /><g
     id="g20928"
     transform="matrix(5.4313787e-4,0,0,-5.4313787e-4,2.1726406,7.2003115)" /><g
     id="g20932"
     transform="matrix(5.4313787e-4,0,0,-5.4313787e-4,2.1726406,7.2003115)" /><g
     id="g20936"
     transform="matrix(5.4313787e-4,0,0,-5.4313787e-4,2.1726406,7.2003115)" /><g
     id="g20940"
     transform="matrix(5.4313787e-4,0,0,-5.4313787e-4,2.1726406,7.2003115)" /><g
     id="g20944"
     transform="matrix(5.4313787e-4,0,0,-5.4313787e-4,2.1726406,7.2003115)" /><g
     id="g20948"
     transform="matrix(5.4313787e-4,0,0,-5.4313787e-4,2.1726406,7.2003115)" /><g
     id="g20952"
     transform="matrix(5.4313787e-4,0,0,-5.4313787e-4,2.1726406,7.2003115)" /><g
     id="g20956"
     transform="matrix(5.4313787e-4,0,0,-5.4313787e-4,2.1726406,7.2003115)" /><g
     id="g20960"
     transform="matrix(5.4313787e-4,0,0,-5.4313787e-4,2.1726406,7.2003115)" /><g
     id="g20964"
     transform="matrix(5.4313787e-4,0,0,-5.4313787e-4,2.1726406,7.2003115)" /><g
     id="g20968"
     transform="matrix(5.4313787e-4,0,0,-5.4313787e-4,2.1726406,7.2003115)" /><g
     id="g20972"
     transform="matrix(5.4313787e-4,0,0,-5.4313787e-4,2.1726406,7.2003115)" /><g
     id="g20976"
     transform="matrix(5.4313787e-4,0,0,-5.4313787e-4,2.1726406,7.2003115)" /><g
     id="g20980"
     transform="matrix(5.4313787e-4,0,0,-5.4313787e-4,2.1726406,7.2003115)" /><g
     id="g20984"
     transform="matrix(5.4313787e-4,0,0,-5.4313787e-4,2.1726406,7.2003115)" /><g
     id="g20988"
     transform="matrix(5.4313787e-4,0,0,-5.4313787e-4,2.1726406,7.2003115)" /><g
     id="g20992"
     transform="matrix(5.4313787e-4,0,0,-5.4313787e-4,2.1726406,7.2003115)" /><g
     id="g20996"
     transform="matrix(5.4313787e-4,0,0,-5.4313787e-4,2.1726406,7.2003115)" /><g
     id="g21000"
     transform="matrix(5.4313787e-4,0,0,-5.4313787e-4,2.1726406,7.2003115)" /><g
     id="g21004"
     transform="matrix(5.4313787e-4,0,0,-5.4313787e-4,2.1726406,7.2003115)" /><g
     id="g21008"
     transform="matrix(5.4313787e-4,0,0,-5.4313787e-4,2.1726406,7.2003115)" /><g
     id="g21012"
     transform="matrix(5.4313787e-4,0,0,-5.4313787e-4,2.1726406,7.2003115)" /><g
     id="g21016"
     transform="matrix(5.4313787e-4,0,0,-5.4313787e-4,2.1726406,7.2003115)" /><g
     id="g21020"
     transform="matrix(5.4313787e-4,0,0,-5.4313787e-4,2.1726406,7.2003115)" /><g
     id="g21024"
     transform="matrix(5.4313787e-4,0,0,-5.4313787e-4,2.1726406,7.2003115)" /><g
     id="g21028"
     transform="matrix(5.4313787e-4,0,0,-5.4313787e-4,2.1726406,7.2003115)" /><g
     id="g21032"
     transform="matrix(5.4313787e-4,0,0,-5.4313787e-4,2.1726406,7.2003115)" /><g
     id="g21036"
     transform="matrix(5.4313787e-4,0,0,-5.4313787e-4,2.1726406,7.2003115)" /><g
     id="g21040"
     transform="matrix(5.4313787e-4,0,0,-5.4313787e-4,2.1726406,7.2003115)" /><g
     id="g21044"
     transform="matrix(5.4313787e-4,0,0,-5.4313787e-4,2.1726406,7.2003115)" /><g
     id="g21048"
     transform="matrix(5.4313787e-4,0,0,-5.4313787e-4,2.1726406,7.2003115)" /><g
     id="g21052"
     transform="matrix(5.4313787e-4,0,0,-5.4313787e-4,2.1726406,7.2003115)" /><g
     id="g21056"
     transform="matrix(5.4313787e-4,0,0,-5.4313787e-4,2.1726406,7.2003115)" /><g
     id="g21060"
     transform="matrix(5.4313787e-4,0,0,-5.4313787e-4,2.1726406,7.2003115)" /><g
     id="g21064"
     transform="matrix(5.4313787e-4,0,0,-5.4313787e-4,2.1726406,7.2003115)" /><g
     id="g21068"
     transform="matrix(5.4313787e-4,0,0,-5.4313787e-4,2.1726406,7.2003115)" /><g
     id="g21072"
     transform="matrix(5.4313787e-4,0,0,-5.4313787e-4,2.1726406,7.2003115)" /><g
     id="g21076"
     transform="matrix(5.4313787e-4,0,0,-5.4313787e-4,2.1726406,7.2003115)" /><g
     id="g21080"
     transform="matrix(5.4313787e-4,0,0,-5.4313787e-4,2.1726406,7.2003115)" /><g
     id="g21084"
     transform="matrix(5.4313787e-4,0,0,-5.4313787e-4,2.1726406,7.2003115)" /><g
     id="g21088"
     transform="matrix(5.4313787e-4,0,0,-5.4313787e-4,2.1726406,7.2003115)" /><g
     id="g21092"
     transform="matrix(5.4313787e-4,0,0,-5.4313787e-4,2.1726406,7.2003115)" /><g
     id="g21096"
     transform="matrix(5.4313787e-4,0,0,-5.4313787e-4,2.1726406,7.2003115)" /><g
     id="g21100"
     transform="matrix(5.4313787e-4,0,0,-5.4313787e-4,2.1726406,7.2003115)" /><g
     id="g21104"
     transform="matrix(5.4313787e-4,0,0,-5.4313787e-4,2.1726406,7.2003115)" /><g
     id="g21108"
     transform="matrix(5.4313787e-4,0,0,-5.4313787e-4,2.1726406,7.2003115)" /></svg>
