<?xml version="1.0" standalone="no"?>
<!DOCTYPE svg PUBLIC "-//W3C//DTD SVG 20010904//EN"
 "http://www.w3.org/TR/2001/REC-SVG-20010904/DTD/svg10.dtd">
<svg version="1.0" xmlns="http://www.w3.org/2000/svg"
 width="700.000000pt" height="700.000000pt" viewBox="0 0 700.000000 700.000000"
 preserveAspectRatio="xMidYMid meet">
<metadata>
Created by potrace 1.14, written by Peter Selinger 2001-2017
</metadata>
<g transform="translate(0.000000,700.000000) scale(0.100000,-0.100000)"
fill="#000000" stroke="none">
<path d="M29 6971 l-29 -29 0 -3442 0 -3442 29 -29 29 -29 3442 0 3442 0 29
29 29 29 0 3442 0 3442 -29 29 -29 29 -3442 0 -3442 0 -29 -29z m3381 -596 l0
-445 -37 16 c-21 9 -78 27 -126 40 -104 27 -269 31 -369 8 -318 -71 -562 -319
-626 -632 -81 -404 156 -806 549 -931 93 -29 113 -33 227 -36 117 -3 206 11
306 49 37 14 70 26 72 26 2 0 2 -196 1 -437 l-2 -436 -548 -1 -549 -1 -24 -28
c-34 -40 -30 -74 16 -146 94 -146 121 -236 116 -390 -4 -112 -5 -120 -31 -191
-57 -159 -193 -303 -349 -370 -109 -46 -267 -59 -391 -31 -134 31 -291 142
-373 263 -137 202 -140 480 -7 683 60 90 70 125 51 163 -8 16 -23 33 -33 38
-10 4 -260 9 -556 9 -295 1 -540 4 -543 7 -4 4 -8 2990 -4 3196 l0 22 1615 0
1615 0 0 -445z m3410 -1165 l0 -1610 -37 0 c-21 -1 -262 -1 -535 -1 -551 -1
-553 -1 -570 -64 -10 -39 -5 -54 52 -140 100 -154 131 -359 80 -523 -71 -225
-270 -401 -499 -441 -245 -42 -511 81 -641 295 -60 99 -88 202 -87 323 0 148
27 233 117 372 46 72 50 106 16 146 l-24 28 -551 0 -551 0 0 532 c0 312 -4
542 -10 557 -22 60 -89 63 -167 9 -126 -87 -226 -118 -373 -117 -330 3 -611
287 -611 619 0 183 60 327 191 456 121 121 263 180 430 180 135 -1 259 -42
375 -125 62 -45 96 -46 136 -7 l29 29 0 546 0 546 1615 0 1615 0 0 -1610z
m-3158 -1816 c-4 -6 -21 -23 -39 -38 l-32 -27 1 33 c1 44 1 44 42 44 23 0 32
-4 28 -12z m168 8 c0 -6 -228 -232 -233 -232 -3 0 -5 30 -6 67 l-1 66 53 51
c52 51 52 51 120 51 37 1 67 -1 67 -3z m127 -31 c-99 -108 -352 -361 -359
-361 -5 0 -8 29 -7 65 l2 65 131 133 131 132 67 0 68 1 -33 -35z m104 -56
c-49 -49 -109 -112 -135 -140 -26 -27 -112 -116 -190 -196 l-143 -145 1 72 1
72 210 214 210 213 67 0 66 0 -87 -90z m216 66 c-51 -55 -433 -456 -573 -600
l-111 -114 0 72 0 72 106 108 c58 60 188 194 288 298 l182 189 65 -1 65 0 -22
-24z m173 18 c0 -4 -55 -62 -122 -130 -100 -101 -287 -297 -483 -504 -172
-183 -227 -235 -249 -235 -3 0 -5 27 -4 59 l3 59 120 124 c66 68 208 215 315
327 107 112 214 224 238 248 23 24 42 47 42 51 0 4 32 7 70 8 39 0 70 -3 70
-7z m2353 2 c15 -1 17 -12 17 -87 0 -47 -4 -83 -8 -80 -5 3 -31 8 -58 11 -27
4 -56 8 -64 11 -58 16 -487 25 -639 14 l-63 -5 -23 64 c-13 36 -22 67 -20 70
2 5 792 6 858 2z m-5746 -18 c-4 -10 -15 -44 -27 -75 -11 -32 -23 -74 -26 -95
-3 -21 -8 -41 -10 -45 -10 -15 -6 -205 5 -265 63 -343 327 -603 671 -661 48
-8 205 -7 260 2 25 4 74 16 110 28 428 138 662 602 519 1031 -16 49 -29 90
-29 93 0 2 198 4 440 4 l440 0 0 -529 c0 -327 4 -540 10 -556 13 -34 69 -59
104 -45 14 5 44 23 67 40 105 76 226 114 364 113 85 0 113 -4 185 -29 379
-132 540 -546 354 -904 -39 -74 -173 -207 -249 -246 -150 -78 -298 -96 -449
-55 -89 25 -138 48 -218 103 -49 35 -62 39 -92 34 -20 -4 -44 -18 -56 -33 -20
-25 -20 -37 -20 -569 l0 -544 -1615 0 -1615 0 0 1610 0 1610 441 0 c416 0 441
-1 436 -17z m3383 -68 c-15 -44 -32 -119 -35 -156 0 -4 -65 -74 -145 -156
-278 -285 -370 -385 -365 -393 3 -5 -3 -7 -12 -6 -22 3 -139 -19 -176 -33 -39
-15 -32 -5 78 109 105 109 256 269 304 320 100 108 357 370 363 370 4 0 -2
-25 -12 -55z m2055 -60 c66 -4 129 -8 140 -9 40 -5 140 -19 155 -22 8 -1 18
-3 23 -3 4 -1 7 -36 7 -80 l0 -78 -72 12 c-71 13 -150 22 -273 31 -88 7 -302
7 -387 -1 l-75 -6 -6 53 c-4 29 -9 62 -12 74 -4 13 -2 21 7 22 7 0 69 4 138 8
69 3 126 7 127 8 3 3 60 0 228 -9z m-2096 -187 c-2 -48 -6 -54 -63 -113 -62
-63 -190 -197 -282 -296 -49 -53 -51 -54 -97 -49 l-47 5 62 65 c142 150 422
440 425 440 2 0 3 -23 2 -52z m2141 19 c160 -19 164 -19 238 -32 l42 -7 0 -78
0 -78 -32 8 c-18 5 -55 11 -83 15 -27 3 -63 8 -80 10 -91 14 -139 17 -330 20
-115 2 -228 0 -250 -4 -24 -4 38 -7 150 -7 248 1 412 -13 598 -50 27 -5 27 -7
27 -80 l0 -74 -32 5 c-18 3 -40 8 -48 10 -92 25 -327 43 -542 41 -126 -1 -228
-1 -228 1 0 1 4 12 9 26 5 13 12 39 15 58 3 19 8 45 11 59 2 13 5 54 6 91 l1
66 56 2 c31 1 58 3 59 5 5 4 367 -2 413 -7z m-2135 -152 c4 -27 8 -51 9 -53 2
-2 -58 -66 -133 -144 -75 -77 -135 -144 -134 -148 1 -4 -20 -2 -47 5 -28 7
-50 11 -50 9 0 -3 -5 -2 -11 1 -6 4 19 37 58 78 191 200 297 307 299 304 2 -2
6 -25 9 -52z m33 -137 c11 -32 16 -58 11 -58 -6 0 -51 -42 -102 -94 l-92 -94
-49 17 -50 17 100 103 c54 57 113 117 129 135 17 18 31 32 32 31 0 0 10 -26
21 -57z m2017 -33 c39 -3 85 -7 103 -10 146 -20 192 -27 222 -33 l35 -8 3 -72
c3 -79 5 -78 -63 -62 -203 46 -536 66 -771 46 l-91 -8 36 74 35 73 111 3 c60
2 111 5 113 7 4 3 178 -3 267 -10z m-1970 -83 l20 -37 -71 -72 -72 -72 -46 22
-45 22 92 92 c50 51 93 90 96 87 3 -2 14 -21 26 -42z m59 -95 l27 -37 -57 -55
c-31 -30 -59 -55 -63 -55 -3 0 -21 13 -40 28 l-33 28 68 67 c37 37 68 66 69
64 0 -1 13 -19 29 -40z m1926 20 c49 -5 121 -15 160 -22 55 -10 97 -17 140
-23 l45 -7 3 -73 3 -73 -43 6 c-23 4 -46 9 -50 11 -9 6 -184 32 -273 42 -38 4
-155 7 -260 7 -209 0 -316 -8 -424 -33 l-45 -11 26 22 c28 25 103 110 115 131
5 10 36 17 93 21 47 4 87 9 89 11 5 4 362 -3 421 -9z m-1853 -110 l32 -33 -54
-52 -54 -52 -37 34 -37 34 54 51 c30 28 56 51 59 51 3 0 19 -15 37 -33z m1783
-42 c58 -4 114 -9 125 -11 11 -2 40 -6 65 -9 45 -6 72 -10 120 -21 14 -2 43
-8 65 -12 l40 -7 3 -74 c2 -61 1 -73 -12 -68 -8 3 -32 9 -53 12 -21 4 -51 11
-68 15 -16 5 -50 11 -75 14 -25 3 -56 8 -70 11 -104 20 -500 28 -628 12 -287
-35 -531 -118 -780 -264 -98 -57 -233 -155 -302 -219 -65 -60 -65 -60 -65 12
0 61 2 66 35 97 84 78 254 199 370 264 39 22 75 33 122 38 125 12 241 54 359
130 41 26 84 45 115 50 27 5 56 10 64 12 37 8 82 13 175 19 55 4 101 7 103 9
4 3 184 -2 292 -10z m-1699 -37 l40 -32 -62 -55 c-34 -31 -64 -55 -66 -54 -3
1 -17 18 -33 38 l-28 35 51 50 c29 27 53 50 55 50 2 0 21 -14 43 -32z m82
-155 c-38 -30 -76 -64 -86 -74 -10 -11 -19 -19 -21 -19 -1 0 -14 21 -27 46
l-24 47 64 58 63 57 49 -30 49 -30 -67 -55z m1602 42 c71 -5 136 -13 245 -31
19 -3 49 -9 65 -14 17 -4 51 -11 78 -15 l47 -6 0 -70 c0 -38 -2 -69 -5 -69 -3
0 -45 9 -93 19 -48 11 -123 25 -168 31 -44 6 -89 12 -100 14 -136 26 -447 23
-614 -4 -30 -5 -71 -12 -90 -15 -65 -11 -224 -57 -310 -90 -219 -84 -447 -227
-625 -390 -16 -15 -39 -36 -51 -47 l-21 -19 12 69 c6 38 10 77 9 87 -1 9 0 14
3 12 3 -3 42 26 86 65 162 140 354 258 542 335 88 35 251 87 310 99 11 2 31 6
45 9 173 37 409 48 635 30z m-1454 -16 l58 -21 -86 -65 c-75 -57 -126 -100
-167 -139 -9 -9 -17 1 -30 39 l-18 51 43 40 c53 49 132 116 138 116 2 0 30
-10 62 -21z m174 -43 l80 -12 -35 -18 c-58 -31 -200 -130 -284 -197 -122 -99
-116 -95 -117 -68 -1 28 -5 48 -14 70 -4 11 12 32 56 70 84 73 212 169 224
168 6 0 46 -6 90 -13z m1270 -90 c44 -4 87 -9 95 -11 8 -2 40 -7 70 -10 47 -5
228 -40 268 -51 13 -4 18 -84 5 -84 -5 0 -26 5 -48 10 -22 5 -65 12 -95 15
-30 4 -66 8 -80 11 -49 9 -186 17 -295 18 -233 1 -436 -30 -645 -100 -510
-170 -929 -557 -1339 -1237 -39 -65 -71 -120 -71 -122 0 -2 -13 -27 -30 -54
-16 -28 -64 -117 -106 -198 -42 -82 -79 -152 -83 -156 -5 -4 -47 -7 -94 -5
l-86 3 78 155 c70 141 104 205 194 370 16 30 74 127 129 215 89 143 105 163
150 190 120 71 262 244 319 390 24 61 51 93 163 189 168 144 360 261 561 341
80 32 243 80 301 89 21 4 46 8 54 11 23 6 77 13 160 21 41 3 76 7 77 8 5 4
280 -2 348 -8z m205 -134 c36 -6 85 -13 110 -17 25 -3 62 -9 82 -14 20 -5 39
-6 42 -3 4 3 6 -18 6 -47 0 -29 -4 -50 -8 -47 -7 4 -35 8 -172 24 -84 9 -378
9 -455 -1 -51 -7 -161 -26 -230 -41 -287 -60 -593 -223 -846 -448 -85 -77
-125 -117 -239 -244 -178 -196 -496 -689 -634 -981 -10 -21 -17 -23 -104 -23
l-94 0 85 163 c462 890 918 1374 1494 1583 93 34 180 58 243 69 19 3 42 8 50
10 28 8 74 15 140 21 36 3 67 7 69 9 8 8 400 -3 461 -13z m120 -125 c14 -3 46
-8 73 -12 l47 -6 0 -48 0 -47 -52 7 c-75 10 -441 3 -513 -10 -33 -6 -76 -14
-95 -17 -283 -45 -619 -210 -875 -429 -97 -83 -235 -222 -294 -295 -20 -25
-38 -47 -41 -50 -3 -3 -21 -25 -40 -50 -19 -25 -37 -47 -40 -50 -9 -8 -91
-125 -157 -225 -70 -104 -192 -308 -248 -412 l-39 -73 -93 0 -93 0 36 68 c118
217 165 299 228 402 39 63 74 120 79 125 4 6 20 29 35 52 224 343 526 649 806
816 71 42 205 111 241 124 147 54 192 69 275 89 52 13 118 27 145 30 28 4 70
10 95 14 49 8 479 6 520 -3z m50 -121 c25 -3 51 -5 58 -5 8 -1 12 -18 12 -50
l0 -49 -132 0 c-116 1 -230 -6 -286 -17 -9 -1 -39 -6 -67 -9 -27 -4 -68 -12
-90 -18 -22 -5 -50 -12 -61 -14 -152 -28 -448 -167 -614 -287 -168 -123 -337
-284 -468 -447 -42 -52 -79 -97 -82 -100 -36 -32 -280 -406 -351 -537 l-34
-63 -92 0 c-51 0 -93 3 -93 6 0 6 38 76 102 189 72 127 263 421 315 485 7 8
43 53 80 100 398 500 878 775 1423 816 47 3 86 7 87 8 4 4 246 -3 293 -8z m65
-175 l0 -53 -90 -4 c-49 -1 -108 -5 -130 -8 -22 -3 -62 -8 -90 -12 -27 -3 -88
-14 -135 -25 -412 -95 -779 -330 -1090 -699 -30 -35 -61 -71 -68 -79 -54 -57
-277 -381 -339 -491 l-28 -50 -97 0 -96 0 50 88 c281 489 594 854 918 1073 91
62 110 72 245 138 196 95 395 150 600 167 39 4 71 7 72 8 2 1 65 2 140 2 l138
-1 0 -54z m3 -128 l-3 -58 -85 -8 c-47 -4 -120 -14 -163 -23 -42 -8 -89 -17
-102 -20 -65 -12 -251 -80 -350 -128 -239 -117 -460 -291 -682 -537 -62 -69
-250 -321 -318 -426 l-60 -93 -97 0 -97 0 47 78 c217 355 477 668 702 847 41
33 77 62 80 65 23 24 177 116 277 166 190 96 394 157 603 180 30 3 56 7 57 8
1 0 45 3 98 4 l96 3 -3 -58z m0 -136 l-3 -61 -100 -17 c-104 -17 -283 -65
-299 -80 -6 -5 -16 -9 -24 -9 -13 0 -72 -26 -182 -79 -57 -27 -274 -168 -324
-211 -112 -94 -258 -237 -331 -325 -79 -95 -199 -251 -239 -312 l-41 -63 -97
0 c-54 0 -98 2 -98 5 0 19 261 388 309 436 9 9 39 43 66 75 180 211 426 406
649 517 92 45 256 110 308 121 13 3 41 10 63 15 77 20 231 43 313 48 l33 2 -3
-62z m2 -147 c0 -38 -3 -69 -7 -68 -19 4 -107 -17 -214 -52 -276 -90 -532
-255 -766 -492 -127 -128 -143 -146 -251 -285 l-87 -113 -97 0 c-54 0 -98 3
-98 8 0 11 112 164 198 272 222 277 458 480 712 612 173 90 371 155 525 175
22 2 42 6 44 9 2 2 13 4 23 4 16 0 18 -9 18 -70z m0 -149 l0 -69 -37 -12 c-21
-6 -45 -14 -53 -17 -8 -3 -19 -7 -25 -8 -55 -14 -245 -103 -331 -156 -71 -43
-226 -156 -279 -204 -123 -109 -247 -240 -352 -373 -17 -22 -24 -23 -122 -20
l-104 3 89 115 c80 102 320 356 399 420 180 147 382 262 580 329 66 22 136 43
155 46 19 3 36 8 39 11 2 2 13 4 23 4 16 0 18 -9 18 -69z m-3203 13 c2 -5 -3
-19 -12 -29 -14 -19 -15 -18 -13 13 2 29 17 39 25 16z m687 4 c-4 -7 -47 -76
-94 -153 -101 -164 -148 -249 -286 -520 l-102 -200 -61 -3 -61 -3 29 53 c15
29 52 98 81 153 109 205 216 395 313 554 43 71 47 75 113 101 38 15 70 28 72
29 2 1 0 -5 -4 -11z m-565 -44 c4 -3 -139 -224 -144 -224 -2 0 -2 44 -1 98 1
88 4 102 25 129 l25 31 45 -16 c25 -8 48 -16 50 -18z m118 -23 c9 -5 4 -20
-20 -56 -18 -28 -75 -117 -126 -200 -52 -82 -100 -158 -107 -168 -10 -15 -12
3 -11 97 1 63 4 113 7 111 3 -2 41 50 84 115 l79 119 41 -6 c23 -3 47 -8 53
-12z m209 -118 c-96 -158 -240 -417 -324 -580 l-57 -113 -47 0 -47 0 1 43 c0
23 4 47 8 52 9 12 210 357 210 361 0 1 45 75 100 164 55 90 100 166 100 171 0
13 20 21 63 25 22 3 43 6 45 9 3 3 11 5 18 5 7 0 -25 -62 -70 -137z m-66 111
c0 -3 -42 -74 -93 -157 -87 -142 -114 -188 -164 -277 -11 -19 -45 -78 -75
-130 -30 -52 -59 -103 -65 -114 -7 -13 -10 15 -9 101 1 112 3 122 28 159 62
92 258 407 258 415 0 5 27 9 60 9 33 0 60 -3 60 -6z m2820 -107 l0 -73 -57
-23 c-141 -57 -373 -194 -476 -282 -99 -84 -184 -165 -275 -262 l-54 -57 -105
0 c-99 0 -105 1 -92 18 225 289 523 536 794 660 76 34 232 91 253 92 8 0 12
-21 12 -73z m0 -171 l0 -84 -81 -41 c-81 -41 -250 -152 -324 -213 -22 -18 -76
-68 -120 -110 l-80 -78 -114 0 c-133 0 -135 -15 19 141 166 169 364 312 550
400 94 44 144 68 148 68 1 1 2 -37 2 -83z m0 -193 l-1 -88 -74 -44 c-41 -25
-119 -80 -172 -123 l-98 -78 -119 0 -120 0 35 36 c58 61 220 193 308 251 74
48 224 133 236 133 3 0 5 -39 5 -87z m-25 -310 c-24 -21 -35 -23 -158 -23
l-132 1 45 40 c25 22 95 73 155 114 l110 73 3 -91 c3 -88 2 -93 -23 -114z m25
-13 c0 -5 -5 -10 -11 -10 -5 0 -7 5 -4 10 3 6 8 10 11 10 2 0 4 -4 4 -10z"/>
</g>
</svg>
